<svg xmlns="http://www.w3.org/2000/svg" width="820" height="420" viewBox="0 0 820 420">
<rect width="100%" height="100%" fill="#ffffff"/>
<text x="24" y="22" font-family="Arial" font-size="16" fill="#111111">FP32 vs Mixed FP16 convergence, MacBook M2</text>
<line x1="64" y1="28" x2="64" y2="368" stroke="#333333"/>
<line x1="64" y1="368" x2="796" y2="368" stroke="#333333"/>
<polyline fill="none" stroke="#0b66c3" stroke-width="2.5" points="64.000000,37.258228 70.151261,228.701572 76.302521,288.850823 82.453782,332.225938 88.605042,323.122674 94.756303,299.460381 100.907563,301.307785 107.058824,298.031157 113.210084,275.781151 119.361345,172.054097 125.512605,69.120633 131.663866,196.155481 137.815126,33.849644 143.966387,221.693803 150.117647,180.230368 156.268908,118.757118 162.420168,28.000000 168.571429,167.883141 174.722689,192.191769 180.873950,171.023420 187.025210,297.822712 193.176471,231.659127 199.327731,223.722101 205.478992,301.175902 211.630252,255.921826 217.781513,266.465033 223.932773,311.600229 230.084034,236.386806 236.235294,256.158305 242.386555,295.682798 248.537815,224.644127 254.689076,309.452882 260.840336,230.019569 266.991597,206.330406 273.142857,276.806499 279.294118,207.465532 285.445378,299.139925 291.596639,244.645964 297.747899,224.386260 303.899160,273.250522 310.050420,260.492493 316.201681,322.314943 322.352941,299.254139 328.504202,283.255451 334.655462,317.382069 340.806723,308.609465 346.957983,340.174929 353.109244,318.677913 359.260504,302.166028 365.411765,327.833050 371.563025,313.580979 377.714286,319.038348 383.865546,284.946012 390.016807,210.634094 396.168067,298.508236 402.319328,300.965626 408.470588,297.748118 414.621849,297.182978 420.773109,265.589845 426.924370,302.730378 433.075630,352.331472 439.226891,351.658583 445.378151,358.799781 451.529412,355.081458 457.680672,352.824948 463.831933,349.430595 469.983193,346.464740 476.134454,329.392353 482.285714,331.406008 488.436975,312.669201 494.588235,301.559042 500.739496,280.845784 506.890756,63.134494 513.042017,273.983894 519.193277,344.608561 525.344538,343.180945 531.495798,356.133067 537.647059,358.650887 543.798319,357.008099 549.949580,361.242705 556.100840,357.031249 562.252101,359.904496 568.403361,355.882530 574.554622,358.558196 580.705882,347.913700 586.857143,332.678526 593.008403,305.660646 599.159664,234.673760 605.310924,306.676965 611.462185,309.598563 617.613445,318.340447 623.764706,308.231273 629.915966,300.565256 636.067227,335.708577 642.218487,322.292081 648.369748,351.087978 654.521008,359.876956 660.672269,361.219852 666.823529,364.789798 672.974790,367.115876 679.126050,363.218107 685.277311,364.334347 691.428571,361.735131 697.579832,357.303449 703.731092,356.241337 709.882353,348.755448 716.033613,321.302745 722.184874,330.740971 728.336134,276.253546 734.487395,278.538876 740.638655,320.453893 746.789916,316.444295 752.941176,348.473004 759.092437,353.827373 765.243697,352.185691 771.394958,362.309714 777.546218,365.734414 783.697479,366.303044 789.848739,368.000000 796.000000,367.047383 "/>
<polyline fill="none" stroke="#c23b22" stroke-width="2.5" points="64.000000,37.281212 70.151261,228.701191 76.302521,288.856818 82.453782,332.287780 88.605042,323.205465 94.756303,299.337948 100.907563,301.321948 107.058824,298.146352 113.210084,275.755606 119.361345,172.110091 125.512605,68.569912 131.663866,194.968810 137.815126,30.504916 143.966387,221.589910 150.117647,180.850727 156.268908,118.271922 162.420168,28.730986 168.571429,165.789846 174.722689,192.720824 180.873950,169.603331 187.025210,297.616016 193.176471,231.466140 199.327731,223.142717 205.478992,300.798668 211.630252,256.385986 217.781513,265.692457 223.932773,311.929991 230.084034,236.626886 236.235294,255.884598 242.386555,296.148693 248.537815,224.393975 254.689076,309.336096 260.840336,230.442974 266.991597,206.122912 273.142857,276.556545 279.294118,207.292733 285.445378,298.804157 291.596639,244.681917 297.747899,224.563495 303.899160,271.978250 310.050420,260.219973 316.201681,322.125287 322.352941,299.548918 328.504202,283.723388 334.655462,317.024605 340.806723,308.668409 346.957983,340.412083 353.109244,319.237439 359.260504,303.251308 365.411765,327.642735 371.563025,313.488599 377.714286,319.677039 383.865546,285.004231 390.016807,211.834188 396.168067,299.918627 402.319328,300.129898 408.470588,297.010699 414.621849,295.448588 420.773109,261.247260 426.924370,300.765562 433.075630,352.018632 439.226891,351.351381 445.378151,358.907506 451.529412,354.643855 457.680672,352.800038 463.831933,349.700490 469.983193,346.991206 476.134454,331.343328 482.285714,332.260943 488.436975,315.554106 494.588235,303.795141 500.739496,283.438893 506.890756,75.087887 513.042017,276.945475 519.193277,342.286634 525.344538,339.648357 531.495798,354.550127 537.647059,356.668372 543.798319,354.077648 549.949580,359.868259 556.100840,355.740570 562.252101,359.061472 568.403361,355.686343 574.554622,358.283030 580.705882,348.803007 586.857143,334.055620 593.008403,310.982871 599.159664,244.812453 605.310924,310.606391 611.462185,312.071807 617.613445,318.332271 623.764706,310.326233 629.915966,295.946374 636.067227,335.861430 642.218487,319.388126 648.369748,348.919925 654.521008,359.270235 660.672269,361.129765 666.823529,364.856751 672.974790,367.200174 679.126050,363.714158 685.277311,364.711137 691.428571,362.846694 697.579832,359.103129 703.731092,358.029165 709.882353,351.928027 716.033613,326.370774 722.184874,333.287583 728.336134,274.486343 734.487395,281.281662 740.638655,314.016169 746.789916,314.039434 752.941176,342.846788 759.092437,346.164146 765.243697,345.728003 771.394958,360.697252 777.546218,364.841178 783.697479,366.014296 789.848739,367.763441 796.000000,367.260596 "/>
<text x="626" y="54" font-family="Arial" font-size="13" fill="#0b66c3">FP32 baseline</text>
<text x="626" y="74" font-family="Arial" font-size="13" fill="#c23b22">MixedFP16 activations</text>
<text x="64" y="404" font-family="Arial" font-size="12" fill="#333333">epoch</text>
<text x="12" y="40" font-family="Arial" font-size="12" fill="#333333">MSE</text>
<text x="726" y="404" font-family="Arial" font-size="12" fill="#333333">120 epochs</text>
<text x="12" y="372" font-family="Arial" font-size="11" fill="#666666">0.000157016</text>
<text x="12" y="32" font-family="Arial" font-size="11" fill="#666666">0.0217875</text>
</svg>
