<svg xmlns="http://www.w3.org/2000/svg" width="1175" height="680" viewBox="0 0 1175 680">
<rect width="100%" height="100%" fill="#ffffff"/>
<style>text{font-family:Arial,Helvetica,sans-serif;fill:#202020}.axis{stroke:#222;stroke-width:1.2}.grid{stroke:#dddddd;stroke-width:1}.label{font-size:13px}.title{font-size:20px;font-weight:700}.tick{font-size:11px}.legend{font-size:12px}</style>
<text class="title" x="90" y="34">Training-loop component breakdown</text>
<text class="label" x="90" y="54">Average DWT cycles per measured run; setup, warm-up, trace, export, and serial I/O excluded.</text>
<line class="axis" x1="90" y1="558" x2="890" y2="558"/>
<line class="axis" x1="90" y1="70" x2="90" y2="558"/>
<line class="grid" x1="90" y1="558.0" x2="890" y2="558.0"/>
<text class="tick" x="80" y="562.0" text-anchor="end">0M</text>
<line class="grid" x1="90" y1="460.4" x2="890" y2="460.4"/>
<text class="tick" x="80" y="464.4" text-anchor="end">22M</text>
<line class="grid" x1="90" y1="362.8" x2="890" y2="362.8"/>
<text class="tick" x="80" y="366.8" text-anchor="end">44M</text>
<line class="grid" x1="90" y1="265.2" x2="890" y2="265.2"/>
<text class="tick" x="80" y="269.2" text-anchor="end">66M</text>
<line class="grid" x1="90" y1="167.6" x2="890" y2="167.6"/>
<text class="tick" x="80" y="171.6" text-anchor="end">88M</text>
<line class="grid" x1="90" y1="70.0" x2="890" y2="70.0"/>
<text class="tick" x="80" y="74.0" text-anchor="end">110M</text>
<text class="label" x="142.5" y="634" text-anchor="middle">8x8</text>
<rect x="90.0" y="558.0" width="17" height="0.6" fill="#4f6f8f"><title>8x8 C M55 zero grad: 4,311 cycles; total: 5,045,642</title></rect>
<rect x="90.0" y="536.4" width="17" height="21.6" fill="#6f6f6f"><title>8x8 C M55 C train step: 4,871,462 cycles; total: 5,045,642</title></rect>
<rect x="90.0" y="535.9" width="17" height="0.6" fill="#2f64b0"><title>8x8 C M55 Adam update: 104,352 cycles; total: 5,045,642</title></rect>
<rect x="90.0" y="535.6" width="17" height="0.6" fill="#c9c9c9"><title>8x8 C M55 other/gap: 65,517 cycles; total: 5,045,642</title></rect>
<rect x="90.0" y="535.6" width="17" height="22.4" fill="none" stroke="#222" stroke-width=".45" opacity=".55"/>
<text class="tick" x="98.5" y="580" text-anchor="end" transform="rotate(-45 98.5 580)">C</text>
<rect x="112.0" y="557.9" width="17" height="0.6" fill="#4f6f8f"><title>8x8 C++ direct C backend zero grad: 25,443 cycles; total: 4,877,439</title></rect>
<rect x="112.0" y="548.2" width="17" height="9.7" fill="#2f7f5f"><title>8x8 C++ direct C backend forward: 2,192,165 cycles; total: 4,877,439</title></rect>
<rect x="112.0" y="548.0" width="17" height="0.6" fill="#d08a2f"><title>8x8 C++ direct C backend loss/grad: 37,864 cycles; total: 4,877,439</title></rect>
<rect x="112.0" y="537.0" width="17" height="11.0" fill="#b64b4b"><title>8x8 C++ direct C backend backward: 2,483,538 cycles; total: 4,877,439</title></rect>
<rect x="112.0" y="536.7" width="17" height="0.6" fill="#2f64b0"><title>8x8 C++ direct C backend Adam update: 67,173 cycles; total: 4,877,439</title></rect>
<rect x="112.0" y="536.4" width="17" height="0.6" fill="#c9c9c9"><title>8x8 C++ direct C backend other/gap: 71,256 cycles; total: 4,877,439</title></rect>
<rect x="112.0" y="536.4" width="17" height="21.6" fill="none" stroke="#222" stroke-width=".45" opacity=".55"/>
<text class="tick" x="120.5" y="580" text-anchor="end" transform="rotate(-45 120.5 580)">Direct</text>
<rect x="134.0" y="557.9" width="17" height="0.6" fill="#4f6f8f"><title>8x8 C++ M55 zero grad: 28,750 cycles; total: 2,409,307</title></rect>
<rect x="134.0" y="552.3" width="17" height="5.6" fill="#2f7f5f"><title>8x8 C++ M55 forward: 1,253,266 cycles; total: 2,409,307</title></rect>
<rect x="134.0" y="552.2" width="17" height="0.6" fill="#d08a2f"><title>8x8 C++ M55 loss/grad: 18,263 cycles; total: 2,409,307</title></rect>
<rect x="134.0" y="547.9" width="17" height="4.3" fill="#b64b4b"><title>8x8 C++ M55 backward: 971,490 cycles; total: 2,409,307</title></rect>
<rect x="134.0" y="547.6" width="17" height="0.6" fill="#2f64b0"><title>8x8 C++ M55 Adam update: 67,287 cycles; total: 2,409,307</title></rect>
<rect x="134.0" y="547.3" width="17" height="0.6" fill="#c9c9c9"><title>8x8 C++ M55 other/gap: 70,251 cycles; total: 2,409,307</title></rect>
<rect x="134.0" y="547.3" width="17" height="10.7" fill="none" stroke="#222" stroke-width=".45" opacity=".55"/>
<text class="tick" x="142.5" y="580" text-anchor="end" transform="rotate(-45 142.5 580)">M55</text>
<rect x="156.0" y="557.9" width="17" height="0.6" fill="#4f6f8f"><title>8x8 C++ generic zero grad: 26,328 cycles; total: 2,335,051</title></rect>
<rect x="156.0" y="554.1" width="17" height="3.7" fill="#2f7f5f"><title>8x8 C++ generic forward: 845,119 cycles; total: 2,335,051</title></rect>
<rect x="156.0" y="554.0" width="17" height="0.6" fill="#d08a2f"><title>8x8 C++ generic loss/grad: 35,749 cycles; total: 2,335,051</title></rect>
<rect x="156.0" y="548.2" width="17" height="5.7" fill="#b64b4b"><title>8x8 C++ generic backward: 1,294,942 cycles; total: 2,335,051</title></rect>
<rect x="156.0" y="547.9" width="17" height="0.6" fill="#2f64b0"><title>8x8 C++ generic Adam update: 78,385 cycles; total: 2,335,051</title></rect>
<rect x="156.0" y="547.6" width="17" height="0.6" fill="#c9c9c9"><title>8x8 C++ generic other/gap: 54,528 cycles; total: 2,335,051</title></rect>
<rect x="156.0" y="547.6" width="17" height="10.4" fill="none" stroke="#222" stroke-width=".45" opacity=".55"/>
<text class="tick" x="164.5" y="580" text-anchor="end" transform="rotate(-45 164.5 580)">Generic</text>
<rect x="178.0" y="558.0" width="17" height="0.6" fill="#4f6f8f"><title>8x8 RLTools generic zero grad: 5,561 cycles; total: 3,208,545</title></rect>
<rect x="178.0" y="557.8" width="17" height="0.6" fill="#7c5aa6"><title>8x8 RLTools generic input copy: 34,112 cycles; total: 3,208,545</title></rect>
<rect x="178.0" y="552.7" width="17" height="5.1" fill="#2f7f5f"><title>8x8 RLTools generic forward: 1,159,988 cycles; total: 3,208,545</title></rect>
<rect x="178.0" y="552.7" width="17" height="0.6" fill="#d08a2f"><title>8x8 RLTools generic loss/grad: 4,096 cycles; total: 3,208,545</title></rect>
<rect x="178.0" y="544.6" width="17" height="8.1" fill="#b64b4b"><title>8x8 RLTools generic backward: 1,823,448 cycles; total: 3,208,545</title></rect>
<rect x="178.0" y="544.2" width="17" height="0.6" fill="#2f64b0"><title>8x8 RLTools generic Adam update: 76,662 cycles; total: 3,208,545</title></rect>
<rect x="178.0" y="543.8" width="17" height="0.6" fill="#c9c9c9"><title>8x8 RLTools generic other/gap: 104,678 cycles; total: 3,208,545</title></rect>
<rect x="178.0" y="543.8" width="17" height="14.2" fill="none" stroke="#222" stroke-width=".45" opacity=".55"/>
<text class="tick" x="186.5" y="580" text-anchor="end" transform="rotate(-45 186.5 580)">RLTools</text>
<text class="label" x="281.5" y="634" text-anchor="middle">16x8</text>
<rect x="229.0" y="558.0" width="17" height="0.6" fill="#4f6f8f"><title>16x8 C M55 zero grad: 5,942 cycles; total: 6,479,183</title></rect>
<rect x="229.0" y="530.1" width="17" height="27.9" fill="#6f6f6f"><title>16x8 C M55 C train step: 6,280,271 cycles; total: 6,479,183</title></rect>
<rect x="229.0" y="529.5" width="17" height="0.7" fill="#2f64b0"><title>16x8 C M55 Adam update: 148,912 cycles; total: 6,479,183</title></rect>
<rect x="229.0" y="529.3" width="17" height="0.6" fill="#c9c9c9"><title>16x8 C M55 other/gap: 44,058 cycles; total: 6,479,183</title></rect>
<rect x="229.0" y="529.3" width="17" height="28.7" fill="none" stroke="#222" stroke-width=".45" opacity=".55"/>
<text class="tick" x="237.5" y="580" text-anchor="end" transform="rotate(-45 237.5 580)">C</text>
<rect x="251.0" y="557.8" width="17" height="0.6" fill="#4f6f8f"><title>16x8 C++ direct C backend zero grad: 46,947 cycles; total: 6,359,555</title></rect>
<rect x="251.0" y="545.0" width="17" height="12.8" fill="#2f7f5f"><title>16x8 C++ direct C backend forward: 2,893,829 cycles; total: 6,359,555</title></rect>
<rect x="251.0" y="544.8" width="17" height="0.6" fill="#d08a2f"><title>16x8 C++ direct C backend loss/grad: 29,351 cycles; total: 6,359,555</title></rect>
<rect x="251.0" y="530.6" width="17" height="14.2" fill="#b64b4b"><title>16x8 C++ direct C backend backward: 3,196,961 cycles; total: 6,359,555</title></rect>
<rect x="251.0" y="530.1" width="17" height="0.6" fill="#2f64b0"><title>16x8 C++ direct C backend Adam update: 111,536 cycles; total: 6,359,555</title></rect>
<rect x="251.0" y="529.8" width="17" height="0.6" fill="#c9c9c9"><title>16x8 C++ direct C backend other/gap: 80,931 cycles; total: 6,359,555</title></rect>
<rect x="251.0" y="529.8" width="17" height="28.2" fill="none" stroke="#222" stroke-width=".45" opacity=".55"/>
<text class="tick" x="259.5" y="580" text-anchor="end" transform="rotate(-45 259.5 580)">Direct</text>
<rect x="273.0" y="557.8" width="17" height="0.6" fill="#4f6f8f"><title>16x8 C++ M55 zero grad: 50,145 cycles; total: 4,199,056</title></rect>
<rect x="273.0" y="548.6" width="17" height="9.2" fill="#2f7f5f"><title>16x8 C++ M55 forward: 2,072,881 cycles; total: 4,199,056</title></rect>
<rect x="273.0" y="548.5" width="17" height="0.6" fill="#d08a2f"><title>16x8 C++ M55 loss/grad: 21,992 cycles; total: 4,199,056</title></rect>
<rect x="273.0" y="540.2" width="17" height="8.3" fill="#b64b4b"><title>16x8 C++ M55 backward: 1,872,129 cycles; total: 4,199,056</title></rect>
<rect x="273.0" y="539.7" width="17" height="0.6" fill="#2f64b0"><title>16x8 C++ M55 Adam update: 110,592 cycles; total: 4,199,056</title></rect>
<rect x="273.0" y="539.4" width="17" height="0.6" fill="#c9c9c9"><title>16x8 C++ M55 other/gap: 71,317 cycles; total: 4,199,056</title></rect>
<rect x="273.0" y="539.4" width="17" height="18.6" fill="none" stroke="#222" stroke-width=".45" opacity=".55"/>
<text class="tick" x="281.5" y="580" text-anchor="end" transform="rotate(-45 281.5 580)">M55</text>
<rect x="295.0" y="557.8" width="17" height="0.6" fill="#4f6f8f"><title>16x8 C++ generic zero grad: 48,523 cycles; total: 4,272,144</title></rect>
<rect x="295.0" y="550.2" width="17" height="7.6" fill="#2f7f5f"><title>16x8 C++ generic forward: 1,713,803 cycles; total: 4,272,144</title></rect>
<rect x="295.0" y="550.0" width="17" height="0.6" fill="#d08a2f"><title>16x8 C++ generic loss/grad: 29,788 cycles; total: 4,272,144</title></rect>
<rect x="295.0" y="539.8" width="17" height="10.2" fill="#b64b4b"><title>16x8 C++ generic backward: 2,303,745 cycles; total: 4,272,144</title></rect>
<rect x="295.0" y="539.4" width="17" height="0.6" fill="#2f64b0"><title>16x8 C++ generic Adam update: 107,612 cycles; total: 4,272,144</title></rect>
<rect x="295.0" y="539.0" width="17" height="0.6" fill="#c9c9c9"><title>16x8 C++ generic other/gap: 68,673 cycles; total: 4,272,144</title></rect>
<rect x="295.0" y="539.0" width="17" height="19.0" fill="none" stroke="#222" stroke-width=".45" opacity=".55"/>
<text class="tick" x="303.5" y="580" text-anchor="end" transform="rotate(-45 303.5 580)">Generic</text>
<rect x="317.0" y="558.0" width="17" height="0.6" fill="#4f6f8f"><title>16x8 RLTools generic zero grad: 8,979 cycles; total: 5,778,170</title></rect>
<rect x="317.0" y="557.8" width="17" height="0.6" fill="#7c5aa6"><title>16x8 RLTools generic input copy: 38,701 cycles; total: 5,778,170</title></rect>
<rect x="317.0" y="550.8" width="17" height="7.0" fill="#2f7f5f"><title>16x8 RLTools generic forward: 1,569,725 cycles; total: 5,778,170</title></rect>
<rect x="317.0" y="550.8" width="17" height="0.6" fill="#d08a2f"><title>16x8 RLTools generic loss/grad: 2,048 cycles; total: 5,778,170</title></rect>
<rect x="317.0" y="534.0" width="17" height="16.8" fill="#b64b4b"><title>16x8 RLTools generic backward: 3,782,854 cycles; total: 5,778,170</title></rect>
<rect x="317.0" y="533.5" width="17" height="0.6" fill="#2f64b0"><title>16x8 RLTools generic Adam update: 128,949 cycles; total: 5,778,170</title></rect>
<rect x="317.0" y="532.4" width="17" height="1.1" fill="#c9c9c9"><title>16x8 RLTools generic other/gap: 246,914 cycles; total: 5,778,170</title></rect>
<rect x="317.0" y="532.4" width="17" height="25.6" fill="none" stroke="#222" stroke-width=".45" opacity=".55"/>
<text class="tick" x="325.5" y="580" text-anchor="end" transform="rotate(-45 325.5 580)">RLTools</text>
<text class="label" x="420.5" y="634" text-anchor="middle">16x16</text>
<rect x="368.0" y="558.0" width="17" height="0.6" fill="#4f6f8f"><title>16x16 C M55 zero grad: 7,435 cycles; total: 8,274,679</title></rect>
<rect x="368.0" y="522.5" width="17" height="35.5" fill="#6f6f6f"><title>16x16 C M55 C train step: 8,004,042 cycles; total: 8,274,679</title></rect>
<rect x="368.0" y="521.6" width="17" height="0.9" fill="#2f64b0"><title>16x16 C M55 Adam update: 199,557 cycles; total: 8,274,679</title></rect>
<rect x="368.0" y="521.3" width="17" height="0.6" fill="#c9c9c9"><title>16x16 C M55 other/gap: 63,645 cycles; total: 8,274,679</title></rect>
<rect x="368.0" y="521.3" width="17" height="36.7" fill="none" stroke="#222" stroke-width=".45" opacity=".55"/>
<text class="tick" x="376.5" y="580" text-anchor="end" transform="rotate(-45 376.5 580)">C</text>
<rect x="390.0" y="557.6" width="17" height="0.6" fill="#4f6f8f"><title>16x16 C++ direct C backend zero grad: 82,606 cycles; total: 8,464,597</title></rect>
<rect x="390.0" y="540.8" width="17" height="16.8" fill="#2f7f5f"><title>16x16 C++ direct C backend forward: 3,797,780 cycles; total: 8,464,597</title></rect>
<rect x="390.0" y="540.6" width="17" height="0.6" fill="#d08a2f"><title>16x16 C++ direct C backend loss/grad: 41,128 cycles; total: 8,464,597</title></rect>
<rect x="390.0" y="522.0" width="17" height="18.6" fill="#b64b4b"><title>16x16 C++ direct C backend backward: 4,198,739 cycles; total: 8,464,597</title></rect>
<rect x="390.0" y="521.2" width="17" height="0.7" fill="#2f64b0"><title>16x16 C++ direct C backend Adam update: 163,985 cycles; total: 8,464,597</title></rect>
<rect x="390.0" y="520.4" width="17" height="0.8" fill="#c9c9c9"><title>16x16 C++ direct C backend other/gap: 180,359 cycles; total: 8,464,597</title></rect>
<rect x="390.0" y="520.4" width="17" height="37.6" fill="none" stroke="#222" stroke-width=".45" opacity=".55"/>
<text class="tick" x="398.5" y="580" text-anchor="end" transform="rotate(-45 398.5 580)">Direct</text>
<rect x="412.0" y="557.6" width="17" height="0.6" fill="#4f6f8f"><title>16x16 C++ M55 zero grad: 89,623 cycles; total: 5,933,540</title></rect>
<rect x="412.0" y="545.1" width="17" height="12.5" fill="#2f7f5f"><title>16x16 C++ M55 forward: 2,818,629 cycles; total: 5,933,540</title></rect>
<rect x="412.0" y="544.9" width="17" height="0.6" fill="#d08a2f"><title>16x16 C++ M55 loss/grad: 33,402 cycles; total: 5,933,540</title></rect>
<rect x="412.0" y="532.7" width="17" height="12.2" fill="#b64b4b"><title>16x16 C++ M55 backward: 2,756,628 cycles; total: 5,933,540</title></rect>
<rect x="412.0" y="532.0" width="17" height="0.7" fill="#2f64b0"><title>16x16 C++ M55 Adam update: 165,465 cycles; total: 5,933,540</title></rect>
<rect x="412.0" y="531.7" width="17" height="0.6" fill="#c9c9c9"><title>16x16 C++ M55 other/gap: 69,793 cycles; total: 5,933,540</title></rect>
<rect x="412.0" y="531.7" width="17" height="26.3" fill="none" stroke="#222" stroke-width=".45" opacity=".55"/>
<text class="tick" x="420.5" y="580" text-anchor="end" transform="rotate(-45 420.5 580)">M55</text>
<rect x="434.0" y="557.6" width="17" height="0.6" fill="#4f6f8f"><title>16x16 C++ generic zero grad: 87,527 cycles; total: 6,897,125</title></rect>
<rect x="434.0" y="545.4" width="17" height="12.2" fill="#2f7f5f"><title>16x16 C++ generic forward: 2,741,979 cycles; total: 6,897,125</title></rect>
<rect x="434.0" y="545.3" width="17" height="0.6" fill="#d08a2f"><title>16x16 C++ generic loss/grad: 40,021 cycles; total: 6,897,125</title></rect>
<rect x="434.0" y="528.4" width="17" height="16.8" fill="#b64b4b"><title>16x16 C++ generic backward: 3,796,066 cycles; total: 6,897,125</title></rect>
<rect x="434.0" y="527.6" width="17" height="0.8" fill="#2f64b0"><title>16x16 C++ generic Adam update: 182,997 cycles; total: 6,897,125</title></rect>
<rect x="434.0" y="527.4" width="17" height="0.6" fill="#c9c9c9"><title>16x16 C++ generic other/gap: 48,535 cycles; total: 6,897,125</title></rect>
<rect x="434.0" y="527.4" width="17" height="30.6" fill="none" stroke="#222" stroke-width=".45" opacity=".55"/>
<text class="tick" x="442.5" y="580" text-anchor="end" transform="rotate(-45 442.5 580)">Generic</text>
<rect x="456.0" y="557.9" width="17" height="0.6" fill="#4f6f8f"><title>16x16 RLTools generic zero grad: 14,502 cycles; total: 10,138,775</title></rect>
<rect x="456.0" y="557.7" width="17" height="0.6" fill="#7c5aa6"><title>16x16 RLTools generic input copy: 42,881 cycles; total: 10,138,775</title></rect>
<rect x="456.0" y="547.2" width="17" height="10.5" fill="#2f7f5f"><title>16x16 RLTools generic forward: 2,377,415 cycles; total: 10,138,775</title></rect>
<rect x="456.0" y="547.2" width="17" height="0.6" fill="#d08a2f"><title>16x16 RLTools generic loss/grad: 2,048 cycles; total: 10,138,775</title></rect>
<rect x="456.0" y="514.3" width="17" height="32.9" fill="#b64b4b"><title>16x16 RLTools generic backward: 7,409,486 cycles; total: 10,138,775</title></rect>
<rect x="456.0" y="513.5" width="17" height="0.9" fill="#2f64b0"><title>16x16 RLTools generic Adam update: 191,631 cycles; total: 10,138,775</title></rect>
<rect x="456.0" y="513.0" width="17" height="0.6" fill="#c9c9c9"><title>16x16 RLTools generic other/gap: 100,812 cycles; total: 10,138,775</title></rect>
<rect x="456.0" y="513.0" width="17" height="45.0" fill="none" stroke="#222" stroke-width=".45" opacity=".55"/>
<text class="tick" x="464.5" y="580" text-anchor="end" transform="rotate(-45 464.5 580)">RLTools</text>
<text class="label" x="559.5" y="634" text-anchor="middle">32x16</text>
<rect x="507.0" y="557.9" width="17" height="0.6" fill="#4f6f8f"><title>32x16 C M55 zero grad: 13,170 cycles; total: 11,977,598</title></rect>
<rect x="507.0" y="506.6" width="17" height="51.4" fill="#6f6f6f"><title>32x16 C M55 C train step: 11,578,481 cycles; total: 11,977,598</title></rect>
<rect x="507.0" y="505.1" width="17" height="1.5" fill="#2f64b0"><title>32x16 C M55 Adam update: 331,151 cycles; total: 11,977,598</title></rect>
<rect x="507.0" y="504.9" width="17" height="0.6" fill="#c9c9c9"><title>32x16 C M55 other/gap: 54,796 cycles; total: 11,977,598</title></rect>
<rect x="507.0" y="504.9" width="17" height="53.1" fill="none" stroke="#222" stroke-width=".45" opacity=".55"/>
<text class="tick" x="515.5" y="580" text-anchor="end" transform="rotate(-45 515.5 580)">C</text>
<rect x="529.0" y="557.3" width="17" height="0.7" fill="#4f6f8f"><title>32x16 C++ direct C backend zero grad: 151,429 cycles; total: 11,931,379</title></rect>
<rect x="529.0" y="533.3" width="17" height="24.0" fill="#2f7f5f"><title>32x16 C++ direct C backend forward: 5,416,215 cycles; total: 11,931,379</title></rect>
<rect x="529.0" y="533.2" width="17" height="0.6" fill="#d08a2f"><title>32x16 C++ direct C backend loss/grad: 33,690 cycles; total: 11,931,379</title></rect>
<rect x="529.0" y="506.7" width="17" height="26.4" fill="#b64b4b"><title>32x16 C++ direct C backend backward: 5,957,440 cycles; total: 11,931,379</title></rect>
<rect x="529.0" y="505.4" width="17" height="1.3" fill="#2f64b0"><title>32x16 C++ direct C backend Adam update: 291,156 cycles; total: 11,931,379</title></rect>
<rect x="529.0" y="505.1" width="17" height="0.6" fill="#c9c9c9"><title>32x16 C++ direct C backend other/gap: 81,449 cycles; total: 11,931,379</title></rect>
<rect x="529.0" y="505.1" width="17" height="52.9" fill="none" stroke="#222" stroke-width=".45" opacity=".55"/>
<text class="tick" x="537.5" y="580" text-anchor="end" transform="rotate(-45 537.5 580)">Direct</text>
<rect x="551.0" y="557.3" width="17" height="0.7" fill="#4f6f8f"><title>32x16 C++ M55 zero grad: 154,297 cycles; total: 10,488,648</title></rect>
<rect x="551.0" y="537.2" width="17" height="20.1" fill="#2f7f5f"><title>32x16 C++ M55 forward: 4,540,310 cycles; total: 10,488,648</title></rect>
<rect x="551.0" y="537.0" width="17" height="0.6" fill="#d08a2f"><title>32x16 C++ M55 loss/grad: 45,410 cycles; total: 10,488,648</title></rect>
<rect x="551.0" y="513.1" width="17" height="23.9" fill="#b64b4b"><title>32x16 C++ M55 backward: 5,380,452 cycles; total: 10,488,648</title></rect>
<rect x="551.0" y="511.8" width="17" height="1.3" fill="#2f64b0"><title>32x16 C++ M55 Adam update: 298,216 cycles; total: 10,488,648</title></rect>
<rect x="551.0" y="511.5" width="17" height="0.6" fill="#c9c9c9"><title>32x16 C++ M55 other/gap: 69,963 cycles; total: 10,488,648</title></rect>
<rect x="551.0" y="511.5" width="17" height="46.5" fill="none" stroke="#222" stroke-width=".45" opacity=".55"/>
<text class="tick" x="559.5" y="580" text-anchor="end" transform="rotate(-45 559.5 580)">M55</text>
<rect x="573.0" y="557.3" width="17" height="0.7" fill="#4f6f8f"><title>32x16 C++ generic zero grad: 152,438 cycles; total: 12,392,163</title></rect>
<rect x="573.0" y="538.3" width="17" height="19.1" fill="#2f7f5f"><title>32x16 C++ generic forward: 4,299,339 cycles; total: 12,392,163</title></rect>
<rect x="573.0" y="538.1" width="17" height="0.6" fill="#d08a2f"><title>32x16 C++ generic loss/grad: 42,314 cycles; total: 12,392,163</title></rect>
<rect x="573.0" y="504.6" width="17" height="33.4" fill="#b64b4b"><title>32x16 C++ generic backward: 7,533,929 cycles; total: 12,392,163</title></rect>
<rect x="573.0" y="503.3" width="17" height="1.3" fill="#2f64b0"><title>32x16 C++ generic Adam update: 300,864 cycles; total: 12,392,163</title></rect>
<rect x="573.0" y="503.0" width="17" height="0.6" fill="#c9c9c9"><title>32x16 C++ generic other/gap: 63,279 cycles; total: 12,392,163</title></rect>
<rect x="573.0" y="503.0" width="17" height="55.0" fill="none" stroke="#222" stroke-width=".45" opacity=".55"/>
<text class="tick" x="581.5" y="580" text-anchor="end" transform="rotate(-45 581.5 580)">Generic</text>
<rect x="595.0" y="557.4" width="17" height="0.6" fill="#4f6f8f"><title>32x16 RLTools generic zero grad: 129,276 cycles; total: 25,253,581</title></rect>
<rect x="595.0" y="557.2" width="17" height="0.6" fill="#7c5aa6"><title>32x16 RLTools generic input copy: 43,411 cycles; total: 25,253,581</title></rect>
<rect x="595.0" y="516.9" width="17" height="40.3" fill="#2f7f5f"><title>32x16 RLTools generic forward: 9,091,568 cycles; total: 25,253,581</title></rect>
<rect x="595.0" y="516.9" width="17" height="0.6" fill="#d08a2f"><title>32x16 RLTools generic loss/grad: 2,048 cycles; total: 25,253,581</title></rect>
<rect x="595.0" y="448.0" width="17" height="68.9" fill="#b64b4b"><title>32x16 RLTools generic backward: 15,527,823 cycles; total: 25,253,581</title></rect>
<rect x="595.0" y="446.5" width="17" height="1.5" fill="#2f64b0"><title>32x16 RLTools generic Adam update: 329,102 cycles; total: 25,253,581</title></rect>
<rect x="595.0" y="446.0" width="17" height="0.6" fill="#c9c9c9"><title>32x16 RLTools generic other/gap: 130,353 cycles; total: 25,253,581</title></rect>
<rect x="595.0" y="446.0" width="17" height="112.0" fill="none" stroke="#222" stroke-width=".45" opacity=".55"/>
<text class="tick" x="603.5" y="580" text-anchor="end" transform="rotate(-45 603.5 580)">RLTools</text>
<text class="label" x="698.5" y="634" text-anchor="middle">32x32</text>
<rect x="646.0" y="557.9" width="17" height="0.6" fill="#4f6f8f"><title>32x32 C M55 zero grad: 21,376 cycles; total: 17,433,015</title></rect>
<rect x="646.0" y="483.4" width="17" height="74.5" fill="#6f6f6f"><title>32x32 C M55 C train step: 16,794,143 cycles; total: 17,433,015</title></rect>
<rect x="646.0" y="480.9" width="17" height="2.5" fill="#2f64b0"><title>32x32 C M55 Adam update: 560,329 cycles; total: 17,433,015</title></rect>
<rect x="646.0" y="480.7" width="17" height="0.6" fill="#c9c9c9"><title>32x32 C M55 other/gap: 57,167 cycles; total: 17,433,015</title></rect>
<rect x="646.0" y="480.7" width="17" height="77.3" fill="none" stroke="#222" stroke-width=".45" opacity=".55"/>
<text class="tick" x="654.5" y="580" text-anchor="end" transform="rotate(-45 654.5 580)">C</text>
<rect x="668.0" y="556.8" width="17" height="1.2" fill="#4f6f8f"><title>32x32 C++ direct C backend zero grad: 272,891 cycles; total: 18,013,959</title></rect>
<rect x="668.0" y="522.6" width="17" height="34.2" fill="#2f7f5f"><title>32x32 C++ direct C backend forward: 7,717,362 cycles; total: 18,013,959</title></rect>
<rect x="668.0" y="522.3" width="17" height="0.6" fill="#d08a2f"><title>32x32 C++ direct C backend loss/grad: 49,634 cycles; total: 18,013,959</title></rect>
<rect x="668.0" y="480.8" width="17" height="41.5" fill="#b64b4b"><title>32x32 C++ direct C backend backward: 9,363,185 cycles; total: 18,013,959</title></rect>
<rect x="668.0" y="478.6" width="17" height="2.2" fill="#2f64b0"><title>32x32 C++ direct C backend Adam update: 496,887 cycles; total: 18,013,959</title></rect>
<rect x="668.0" y="478.1" width="17" height="0.6" fill="#c9c9c9"><title>32x32 C++ direct C backend other/gap: 114,000 cycles; total: 18,013,959</title></rect>
<rect x="668.0" y="478.1" width="17" height="79.9" fill="none" stroke="#222" stroke-width=".45" opacity=".55"/>
<text class="tick" x="676.5" y="580" text-anchor="end" transform="rotate(-45 676.5 580)">Direct</text>
<rect x="690.0" y="556.7" width="17" height="1.3" fill="#4f6f8f"><title>32x32 C++ M55 zero grad: 281,833 cycles; total: 17,521,556</title></rect>
<rect x="690.0" y="524.4" width="17" height="32.3" fill="#2f7f5f"><title>32x32 C++ M55 forward: 7,285,528 cycles; total: 17,521,556</title></rect>
<rect x="690.0" y="524.4" width="17" height="0.6" fill="#d08a2f"><title>32x32 C++ M55 loss/grad: 17,056 cycles; total: 17,521,556</title></rect>
<rect x="690.0" y="482.8" width="17" height="41.6" fill="#b64b4b"><title>32x32 C++ M55 backward: 9,369,655 cycles; total: 17,521,556</title></rect>
<rect x="690.0" y="480.7" width="17" height="2.1" fill="#2f64b0"><title>32x32 C++ M55 Adam update: 480,556 cycles; total: 17,521,556</title></rect>
<rect x="690.0" y="480.3" width="17" height="0.6" fill="#c9c9c9"><title>32x32 C++ M55 other/gap: 86,928 cycles; total: 17,521,556</title></rect>
<rect x="690.0" y="480.3" width="17" height="77.7" fill="none" stroke="#222" stroke-width=".45" opacity=".55"/>
<text class="tick" x="698.5" y="580" text-anchor="end" transform="rotate(-45 698.5 580)">M55</text>
<rect x="712.0" y="556.8" width="17" height="1.2" fill="#4f6f8f"><title>32x32 C++ generic zero grad: 275,502 cycles; total: 22,441,837</title></rect>
<rect x="712.0" y="522.1" width="17" height="34.7" fill="#2f7f5f"><title>32x32 C++ generic forward: 7,817,107 cycles; total: 22,441,837</title></rect>
<rect x="712.0" y="521.9" width="17" height="0.6" fill="#d08a2f"><title>32x32 C++ generic loss/grad: 43,306 cycles; total: 22,441,837</title></rect>
<rect x="712.0" y="461.0" width="17" height="60.9" fill="#b64b4b"><title>32x32 C++ generic backward: 13,734,615 cycles; total: 22,441,837</title></rect>
<rect x="712.0" y="458.7" width="17" height="2.2" fill="#2f64b0"><title>32x32 C++ generic Adam update: 502,371 cycles; total: 22,441,837</title></rect>
<rect x="712.0" y="458.4" width="17" height="0.6" fill="#c9c9c9"><title>32x32 C++ generic other/gap: 68,936 cycles; total: 22,441,837</title></rect>
<rect x="712.0" y="458.4" width="17" height="99.6" fill="none" stroke="#222" stroke-width=".45" opacity=".55"/>
<text class="tick" x="720.5" y="580" text-anchor="end" transform="rotate(-45 720.5 580)">Generic</text>
<rect x="734.0" y="556.8" width="17" height="1.2" fill="#4f6f8f"><title>32x32 RLTools generic zero grad: 261,931 cycles; total: 51,995,458</title></rect>
<rect x="734.0" y="556.6" width="17" height="0.6" fill="#7c5aa6"><title>32x32 RLTools generic input copy: 43,120 cycles; total: 51,995,458</title></rect>
<rect x="734.0" y="468.1" width="17" height="88.6" fill="#2f7f5f"><title>32x32 RLTools generic forward: 19,969,640 cycles; total: 51,995,458</title></rect>
<rect x="734.0" y="468.0" width="17" height="0.6" fill="#d08a2f"><title>32x32 RLTools generic loss/grad: 2,048 cycles; total: 51,995,458</title></rect>
<rect x="734.0" y="330.4" width="17" height="137.7" fill="#b64b4b"><title>32x32 RLTools generic backward: 31,034,076 cycles; total: 51,995,458</title></rect>
<rect x="734.0" y="327.8" width="17" height="2.5" fill="#2f64b0"><title>32x32 RLTools generic Adam update: 569,824 cycles; total: 51,995,458</title></rect>
<rect x="734.0" y="327.3" width="17" height="0.6" fill="#c9c9c9"><title>32x32 RLTools generic other/gap: 114,819 cycles; total: 51,995,458</title></rect>
<rect x="734.0" y="327.3" width="17" height="230.7" fill="none" stroke="#222" stroke-width=".45" opacity=".55"/>
<text class="tick" x="742.5" y="580" text-anchor="end" transform="rotate(-45 742.5 580)">RLTools</text>
<text class="label" x="837.5" y="634" text-anchor="middle">64x32</text>
<rect x="785.0" y="557.8" width="17" height="0.6" fill="#4f6f8f"><title>64x32 C M55 zero grad: 40,072 cycles; total: 33,581,881</title></rect>
<rect x="785.0" y="418.4" width="17" height="139.5" fill="#6f6f6f"><title>64x32 C M55 C train step: 31,437,116 cycles; total: 33,581,881</title></rect>
<rect x="785.0" y="413.1" width="17" height="5.3" fill="#2f64b0"><title>64x32 C M55 Adam update: 1,192,790 cycles; total: 33,581,881</title></rect>
<rect x="785.0" y="409.0" width="17" height="4.0" fill="#c9c9c9"><title>64x32 C M55 other/gap: 911,903 cycles; total: 33,581,881</title></rect>
<rect x="785.0" y="409.0" width="17" height="149.0" fill="none" stroke="#222" stroke-width=".45" opacity=".55"/>
<text class="tick" x="793.5" y="580" text-anchor="end" transform="rotate(-45 793.5 580)">C</text>
<rect x="807.0" y="555.6" width="17" height="2.4" fill="#4f6f8f"><title>64x32 C++ direct C backend zero grad: 536,064 cycles; total: 37,177,393</title></rect>
<rect x="807.0" y="483.5" width="17" height="72.1" fill="#2f7f5f"><title>64x32 C++ direct C backend forward: 16,251,775 cycles; total: 37,177,393</title></rect>
<rect x="807.0" y="483.2" width="17" height="0.6" fill="#d08a2f"><title>64x32 C++ direct C backend loss/grad: 70,077 cycles; total: 37,177,393</title></rect>
<rect x="807.0" y="405.3" width="17" height="77.9" fill="#b64b4b"><title>64x32 C++ direct C backend backward: 17,566,854 cycles; total: 37,177,393</title></rect>
<rect x="807.0" y="400.6" width="17" height="4.7" fill="#2f64b0"><title>64x32 C++ direct C backend Adam update: 1,048,369 cycles; total: 37,177,393</title></rect>
<rect x="807.0" y="393.1" width="17" height="7.6" fill="#c9c9c9"><title>64x32 C++ direct C backend other/gap: 1,704,254 cycles; total: 37,177,393</title></rect>
<rect x="807.0" y="393.1" width="17" height="164.9" fill="none" stroke="#222" stroke-width=".45" opacity=".55"/>
<text class="tick" x="815.5" y="580" text-anchor="end" transform="rotate(-45 815.5 580)">Direct</text>
<rect x="829.0" y="555.6" width="17" height="2.4" fill="#4f6f8f"><title>64x32 C++ M55 zero grad: 539,878 cycles; total: 28,511,700</title></rect>
<rect x="829.0" y="497.0" width="17" height="58.6" fill="#2f7f5f"><title>64x32 C++ M55 forward: 13,218,624 cycles; total: 28,511,700</title></rect>
<rect x="829.0" y="494.2" width="17" height="2.8" fill="#d08a2f"><title>64x32 C++ M55 loss/grad: 623,841 cycles; total: 28,511,700</title></rect>
<rect x="829.0" y="436.6" width="17" height="57.6" fill="#b64b4b"><title>64x32 C++ M55 backward: 12,988,210 cycles; total: 28,511,700</title></rect>
<rect x="829.0" y="431.8" width="17" height="4.7" fill="#2f64b0"><title>64x32 C++ M55 Adam update: 1,066,551 cycles; total: 28,511,700</title></rect>
<rect x="829.0" y="431.5" width="17" height="0.6" fill="#c9c9c9"><title>64x32 C++ M55 other/gap: 74,596 cycles; total: 28,511,700</title></rect>
<rect x="829.0" y="431.5" width="17" height="126.5" fill="none" stroke="#222" stroke-width=".45" opacity=".55"/>
<text class="tick" x="837.5" y="580" text-anchor="end" transform="rotate(-45 837.5 580)">M55</text>
<rect x="851.0" y="555.6" width="17" height="2.4" fill="#4f6f8f"><title>64x32 C++ generic zero grad: 536,890 cycles; total: 39,329,309</title></rect>
<rect x="851.0" y="487.3" width="17" height="68.3" fill="#2f7f5f"><title>64x32 C++ generic forward: 15,390,578 cycles; total: 39,329,309</title></rect>
<rect x="851.0" y="486.5" width="17" height="0.8" fill="#d08a2f"><title>64x32 C++ generic loss/grad: 187,975 cycles; total: 39,329,309</title></rect>
<rect x="851.0" y="388.4" width="17" height="98.1" fill="#b64b4b"><title>64x32 C++ generic backward: 22,119,872 cycles; total: 39,329,309</title></rect>
<rect x="851.0" y="383.8" width="17" height="4.6" fill="#2f64b0"><title>64x32 C++ generic Adam update: 1,036,327 cycles; total: 39,329,309</title></rect>
<rect x="851.0" y="383.5" width="17" height="0.6" fill="#c9c9c9"><title>64x32 C++ generic other/gap: 57,667 cycles; total: 39,329,309</title></rect>
<rect x="851.0" y="383.5" width="17" height="174.5" fill="none" stroke="#222" stroke-width=".45" opacity=".55"/>
<text class="tick" x="859.5" y="580" text-anchor="end" transform="rotate(-45 859.5 580)">Generic</text>
<rect x="873.0" y="555.8" width="17" height="2.2" fill="#4f6f8f"><title>64x32 RLTools generic zero grad: 500,422 cycles; total: 108,828,511</title></rect>
<rect x="873.0" y="555.6" width="17" height="0.6" fill="#7c5aa6"><title>64x32 RLTools generic input copy: 46,757 cycles; total: 108,828,511</title></rect>
<rect x="873.0" y="382.8" width="17" height="172.7" fill="#2f7f5f"><title>64x32 RLTools generic forward: 38,933,782 cycles; total: 108,828,511</title></rect>
<rect x="873.0" y="382.8" width="17" height="0.6" fill="#d08a2f"><title>64x32 RLTools generic loss/grad: 4,096 cycles; total: 108,828,511</title></rect>
<rect x="873.0" y="81.6" width="17" height="301.3" fill="#b64b4b"><title>64x32 RLTools generic backward: 67,908,807 cycles; total: 108,828,511</title></rect>
<rect x="873.0" y="75.9" width="17" height="5.7" fill="#2f64b0"><title>64x32 RLTools generic Adam update: 1,278,753 cycles; total: 108,828,511</title></rect>
<rect x="873.0" y="75.2" width="17" height="0.7" fill="#c9c9c9"><title>64x32 RLTools generic other/gap: 155,894 cycles; total: 108,828,511</title></rect>
<rect x="873.0" y="75.2" width="17" height="482.8" fill="none" stroke="#222" stroke-width=".45" opacity=".55"/>
<text class="tick" x="881.5" y="580" text-anchor="end" transform="rotate(-45 881.5 580)">RLTools</text>
<text class="label" transform="translate(24 314.0) rotate(-90)" text-anchor="middle">cycles per measured run</text>
<text class="legend" x="934" y="62">Components</text>
<rect x="934" y="66" width="16" height="16" fill="#4f6f8f"/>
<text class="legend" x="958" y="79">zero grad</text>
<rect x="934" y="87" width="16" height="16" fill="#7c5aa6"/>
<text class="legend" x="958" y="100">input copy</text>
<rect x="934" y="108" width="16" height="16" fill="#2f7f5f"/>
<text class="legend" x="958" y="121">forward</text>
<rect x="934" y="129" width="16" height="16" fill="#d08a2f"/>
<text class="legend" x="958" y="142">loss/grad</text>
<rect x="934" y="150" width="16" height="16" fill="#b64b4b"/>
<text class="legend" x="958" y="163">backward</text>
<rect x="934" y="171" width="16" height="16" fill="#6f6f6f"/>
<text class="legend" x="958" y="184">C train step</text>
<rect x="934" y="192" width="16" height="16" fill="#2f64b0"/>
<text class="legend" x="958" y="205">Adam update</text>
<rect x="934" y="213" width="16" height="16" fill="#c9c9c9"/>
<text class="legend" x="958" y="226">other/gap</text>
<text class="legend" x="934" y="272">Variant order</text>
<text class="legend" x="934" y="288">C: C M55</text>
<text class="legend" x="934" y="307">Direct: C++ direct C backend</text>
<text class="legend" x="934" y="326">M55: C++ M55</text>
<text class="legend" x="934" y="345">Generic: C++ generic</text>
<text class="legend" x="934" y="364">RLTools: RLTools generic</text>
</svg>
