<svg xmlns="http://www.w3.org/2000/svg" width="1175" height="680" viewBox="0 0 1175 680">
<rect width="100%" height="100%" fill="#ffffff"/>
<style>text{font-family:Arial,Helvetica,sans-serif;fill:#202020}.axis{stroke:#222;stroke-width:1.2}.grid{stroke:#dddddd;stroke-width:1}.label{font-size:13px}.title{font-size:20px;font-weight:700}.tick{font-size:11px}.legend{font-size:12px}</style>
<text class="title" x="90" y="34">Training-loop component breakdown</text>
<text class="label" x="90" y="54">Average DWT cycles per measured run; setup, warm-up, trace, export, and serial I/O excluded.</text>
<line class="axis" x1="90" y1="558" x2="890" y2="558"/>
<line class="axis" x1="90" y1="70" x2="90" y2="558"/>
<line class="grid" x1="90" y1="558.0" x2="890" y2="558.0"/>
<text class="tick" x="80" y="562.0" text-anchor="end">0M</text>
<line class="grid" x1="90" y1="460.4" x2="890" y2="460.4"/>
<text class="tick" x="80" y="464.4" text-anchor="end">24M</text>
<line class="grid" x1="90" y1="362.8" x2="890" y2="362.8"/>
<text class="tick" x="80" y="366.8" text-anchor="end">48M</text>
<line class="grid" x1="90" y1="265.2" x2="890" y2="265.2"/>
<text class="tick" x="80" y="269.2" text-anchor="end">72M</text>
<line class="grid" x1="90" y1="167.6" x2="890" y2="167.6"/>
<text class="tick" x="80" y="171.6" text-anchor="end">96M</text>
<line class="grid" x1="90" y1="70.0" x2="890" y2="70.0"/>
<text class="tick" x="80" y="74.0" text-anchor="end">120M</text>
<text class="label" x="142.5" y="634" text-anchor="middle">8x8</text>
<rect x="90.0" y="558.0" width="17" height="0.6" fill="#4f6f8f"><title>8x8 C M55 zero grad: 5,034 cycles; total: 5,032,334</title></rect>
<rect x="90.0" y="538.2" width="17" height="19.8" fill="#6f6f6f"><title>8x8 C M55 C train step: 4,865,777 cycles; total: 5,032,334</title></rect>
<rect x="90.0" y="537.8" width="17" height="0.6" fill="#2f64b0"><title>8x8 C M55 Adam update: 103,930 cycles; total: 5,032,334</title></rect>
<rect x="90.0" y="537.5" width="17" height="0.6" fill="#c9c9c9"><title>8x8 C M55 other/gap: 57,593 cycles; total: 5,032,334</title></rect>
<rect x="90.0" y="537.5" width="17" height="20.5" fill="none" stroke="#222" stroke-width=".45" opacity=".55"/>
<text class="tick" x="98.5" y="580" text-anchor="end" transform="rotate(-45 98.5 580)">C</text>
<rect x="112.0" y="557.9" width="17" height="0.6" fill="#4f6f8f"><title>8x8 C++ direct C backend zero grad: 26,542 cycles; total: 4,860,791</title></rect>
<rect x="112.0" y="549.0" width="17" height="8.9" fill="#2f7f5f"><title>8x8 C++ direct C backend forward: 2,184,108 cycles; total: 4,860,791</title></rect>
<rect x="112.0" y="548.8" width="17" height="0.6" fill="#d08a2f"><title>8x8 C++ direct C backend loss/grad: 42,632 cycles; total: 4,860,791</title></rect>
<rect x="112.0" y="538.9" width="17" height="9.9" fill="#b64b4b"><title>8x8 C++ direct C backend backward: 2,446,520 cycles; total: 4,860,791</title></rect>
<rect x="112.0" y="538.6" width="17" height="0.6" fill="#2f64b0"><title>8x8 C++ direct C backend Adam update: 66,452 cycles; total: 4,860,791</title></rect>
<rect x="112.0" y="538.2" width="17" height="0.6" fill="#c9c9c9"><title>8x8 C++ direct C backend other/gap: 94,537 cycles; total: 4,860,791</title></rect>
<rect x="112.0" y="538.2" width="17" height="19.8" fill="none" stroke="#222" stroke-width=".45" opacity=".55"/>
<text class="tick" x="120.5" y="580" text-anchor="end" transform="rotate(-45 120.5 580)">Direct</text>
<rect x="134.0" y="557.9" width="17" height="0.6" fill="#4f6f8f"><title>8x8 C++ M55 zero grad: 29,605 cycles; total: 2,406,595</title></rect>
<rect x="134.0" y="552.8" width="17" height="5.1" fill="#2f7f5f"><title>8x8 C++ M55 forward: 1,254,251 cycles; total: 2,406,595</title></rect>
<rect x="134.0" y="552.7" width="17" height="0.6" fill="#d08a2f"><title>8x8 C++ M55 loss/grad: 10,362 cycles; total: 2,406,595</title></rect>
<rect x="134.0" y="548.8" width="17" height="4.0" fill="#b64b4b"><title>8x8 C++ M55 backward: 973,020 cycles; total: 2,406,595</title></rect>
<rect x="134.0" y="548.5" width="17" height="0.6" fill="#2f64b0"><title>8x8 C++ M55 Adam update: 67,244 cycles; total: 2,406,595</title></rect>
<rect x="134.0" y="548.2" width="17" height="0.6" fill="#c9c9c9"><title>8x8 C++ M55 other/gap: 72,113 cycles; total: 2,406,595</title></rect>
<rect x="134.0" y="548.2" width="17" height="9.8" fill="none" stroke="#222" stroke-width=".45" opacity=".55"/>
<text class="tick" x="142.5" y="580" text-anchor="end" transform="rotate(-45 142.5 580)">M55</text>
<rect x="156.0" y="557.9" width="17" height="0.6" fill="#4f6f8f"><title>8x8 C++ generic zero grad: 28,643 cycles; total: 2,341,233</title></rect>
<rect x="156.0" y="554.4" width="17" height="3.4" fill="#2f7f5f"><title>8x8 C++ generic forward: 845,553 cycles; total: 2,341,233</title></rect>
<rect x="156.0" y="554.3" width="17" height="0.6" fill="#d08a2f"><title>8x8 C++ generic loss/grad: 36,534 cycles; total: 2,341,233</title></rect>
<rect x="156.0" y="549.0" width="17" height="5.3" fill="#b64b4b"><title>8x8 C++ generic backward: 1,292,533 cycles; total: 2,341,233</title></rect>
<rect x="156.0" y="548.7" width="17" height="0.6" fill="#2f64b0"><title>8x8 C++ generic Adam update: 82,652 cycles; total: 2,341,233</title></rect>
<rect x="156.0" y="548.5" width="17" height="0.6" fill="#c9c9c9"><title>8x8 C++ generic other/gap: 55,318 cycles; total: 2,341,233</title></rect>
<rect x="156.0" y="548.5" width="17" height="9.5" fill="none" stroke="#222" stroke-width=".45" opacity=".55"/>
<text class="tick" x="164.5" y="580" text-anchor="end" transform="rotate(-45 164.5 580)">Generic</text>
<rect x="178.0" y="558.0" width="17" height="0.6" fill="#4f6f8f"><title>8x8 RLTools generic zero grad: 5,935 cycles; total: 3,232,847</title></rect>
<rect x="178.0" y="557.8" width="17" height="0.6" fill="#7c5aa6"><title>8x8 RLTools generic input copy: 34,177 cycles; total: 3,232,847</title></rect>
<rect x="178.0" y="553.1" width="17" height="4.7" fill="#2f7f5f"><title>8x8 RLTools generic forward: 1,162,863 cycles; total: 3,232,847</title></rect>
<rect x="178.0" y="553.1" width="17" height="0.6" fill="#d08a2f"><title>8x8 RLTools generic loss/grad: 4,173 cycles; total: 3,232,847</title></rect>
<rect x="178.0" y="545.6" width="17" height="7.5" fill="#b64b4b"><title>8x8 RLTools generic backward: 1,837,904 cycles; total: 3,232,847</title></rect>
<rect x="178.0" y="545.3" width="17" height="0.6" fill="#2f64b0"><title>8x8 RLTools generic Adam update: 82,964 cycles; total: 3,232,847</title></rect>
<rect x="178.0" y="544.9" width="17" height="0.6" fill="#c9c9c9"><title>8x8 RLTools generic other/gap: 104,831 cycles; total: 3,232,847</title></rect>
<rect x="178.0" y="544.9" width="17" height="13.1" fill="none" stroke="#222" stroke-width=".45" opacity=".55"/>
<text class="tick" x="186.5" y="580" text-anchor="end" transform="rotate(-45 186.5 580)">RLTools</text>
<text class="label" x="281.5" y="634" text-anchor="middle">16x8</text>
<rect x="229.0" y="558.0" width="17" height="0.6" fill="#4f6f8f"><title>16x8 C M55 zero grad: 6,020 cycles; total: 6,478,436</title></rect>
<rect x="229.0" y="532.5" width="17" height="25.5" fill="#6f6f6f"><title>16x8 C M55 C train step: 6,274,897 cycles; total: 6,478,436</title></rect>
<rect x="229.0" y="531.9" width="17" height="0.6" fill="#2f64b0"><title>16x8 C M55 Adam update: 149,196 cycles; total: 6,478,436</title></rect>
<rect x="229.0" y="531.7" width="17" height="0.6" fill="#c9c9c9"><title>16x8 C M55 other/gap: 48,323 cycles; total: 6,478,436</title></rect>
<rect x="229.0" y="531.7" width="17" height="26.3" fill="none" stroke="#222" stroke-width=".45" opacity=".55"/>
<text class="tick" x="237.5" y="580" text-anchor="end" transform="rotate(-45 237.5 580)">C</text>
<rect x="251.0" y="557.8" width="17" height="0.6" fill="#4f6f8f"><title>16x8 C++ direct C backend zero grad: 46,962 cycles; total: 6,379,123</title></rect>
<rect x="251.0" y="546.0" width="17" height="11.8" fill="#2f7f5f"><title>16x8 C++ direct C backend forward: 2,894,301 cycles; total: 6,379,123</title></rect>
<rect x="251.0" y="545.9" width="17" height="0.6" fill="#d08a2f"><title>16x8 C++ direct C backend loss/grad: 39,691 cycles; total: 6,379,123</title></rect>
<rect x="251.0" y="532.8" width="17" height="13.1" fill="#b64b4b"><title>16x8 C++ direct C backend backward: 3,216,158 cycles; total: 6,379,123</title></rect>
<rect x="251.0" y="532.3" width="17" height="0.6" fill="#2f64b0"><title>16x8 C++ direct C backend Adam update: 113,875 cycles; total: 6,379,123</title></rect>
<rect x="251.0" y="532.1" width="17" height="0.6" fill="#c9c9c9"><title>16x8 C++ direct C backend other/gap: 68,136 cycles; total: 6,379,123</title></rect>
<rect x="251.0" y="532.1" width="17" height="25.9" fill="none" stroke="#222" stroke-width=".45" opacity=".55"/>
<text class="tick" x="259.5" y="580" text-anchor="end" transform="rotate(-45 259.5 580)">Direct</text>
<rect x="273.0" y="557.8" width="17" height="0.6" fill="#4f6f8f"><title>16x8 C++ M55 zero grad: 49,462 cycles; total: 4,203,627</title></rect>
<rect x="273.0" y="549.4" width="17" height="8.4" fill="#2f7f5f"><title>16x8 C++ M55 forward: 2,073,356 cycles; total: 4,203,627</title></rect>
<rect x="273.0" y="549.3" width="17" height="0.6" fill="#d08a2f"><title>16x8 C++ M55 loss/grad: 21,834 cycles; total: 4,203,627</title></rect>
<rect x="273.0" y="541.7" width="17" height="7.6" fill="#b64b4b"><title>16x8 C++ M55 backward: 1,872,854 cycles; total: 4,203,627</title></rect>
<rect x="273.0" y="541.2" width="17" height="0.6" fill="#2f64b0"><title>16x8 C++ M55 Adam update: 115,752 cycles; total: 4,203,627</title></rect>
<rect x="273.0" y="540.9" width="17" height="0.6" fill="#c9c9c9"><title>16x8 C++ M55 other/gap: 70,369 cycles; total: 4,203,627</title></rect>
<rect x="273.0" y="540.9" width="17" height="17.1" fill="none" stroke="#222" stroke-width=".45" opacity=".55"/>
<text class="tick" x="281.5" y="580" text-anchor="end" transform="rotate(-45 281.5 580)">M55</text>
<rect x="295.0" y="557.8" width="17" height="0.6" fill="#4f6f8f"><title>16x8 C++ generic zero grad: 47,992 cycles; total: 4,284,229</title></rect>
<rect x="295.0" y="550.8" width="17" height="7.0" fill="#2f7f5f"><title>16x8 C++ generic forward: 1,721,317 cycles; total: 4,284,229</title></rect>
<rect x="295.0" y="550.7" width="17" height="0.6" fill="#d08a2f"><title>16x8 C++ generic loss/grad: 30,124 cycles; total: 4,284,229</title></rect>
<rect x="295.0" y="541.3" width="17" height="9.4" fill="#b64b4b"><title>16x8 C++ generic backward: 2,307,523 cycles; total: 4,284,229</title></rect>
<rect x="295.0" y="540.9" width="17" height="0.6" fill="#2f64b0"><title>16x8 C++ generic Adam update: 108,703 cycles; total: 4,284,229</title></rect>
<rect x="295.0" y="540.6" width="17" height="0.6" fill="#c9c9c9"><title>16x8 C++ generic other/gap: 68,570 cycles; total: 4,284,229</title></rect>
<rect x="295.0" y="540.6" width="17" height="17.4" fill="none" stroke="#222" stroke-width=".45" opacity=".55"/>
<text class="tick" x="303.5" y="580" text-anchor="end" transform="rotate(-45 303.5 580)">Generic</text>
<rect x="317.0" y="558.0" width="17" height="0.6" fill="#4f6f8f"><title>16x8 RLTools generic zero grad: 8,764 cycles; total: 5,659,112</title></rect>
<rect x="317.0" y="557.8" width="17" height="0.6" fill="#7c5aa6"><title>16x8 RLTools generic input copy: 39,027 cycles; total: 5,659,112</title></rect>
<rect x="317.0" y="551.4" width="17" height="6.4" fill="#2f7f5f"><title>16x8 RLTools generic forward: 1,581,941 cycles; total: 5,659,112</title></rect>
<rect x="317.0" y="551.4" width="17" height="0.6" fill="#d08a2f"><title>16x8 RLTools generic loss/grad: 2,048 cycles; total: 5,659,112</title></rect>
<rect x="317.0" y="535.9" width="17" height="15.4" fill="#b64b4b"><title>16x8 RLTools generic backward: 3,795,210 cycles; total: 5,659,112</title></rect>
<rect x="317.0" y="535.4" width="17" height="0.6" fill="#2f64b0"><title>16x8 RLTools generic Adam update: 131,076 cycles; total: 5,659,112</title></rect>
<rect x="317.0" y="535.0" width="17" height="0.6" fill="#c9c9c9"><title>16x8 RLTools generic other/gap: 101,046 cycles; total: 5,659,112</title></rect>
<rect x="317.0" y="535.0" width="17" height="23.0" fill="none" stroke="#222" stroke-width=".45" opacity=".55"/>
<text class="tick" x="325.5" y="580" text-anchor="end" transform="rotate(-45 325.5 580)">RLTools</text>
<text class="label" x="420.5" y="634" text-anchor="middle">16x16</text>
<rect x="368.0" y="558.0" width="17" height="0.6" fill="#4f6f8f"><title>16x16 C M55 zero grad: 7,672 cycles; total: 8,272,667</title></rect>
<rect x="368.0" y="525.5" width="17" height="32.5" fill="#6f6f6f"><title>16x16 C M55 C train step: 7,992,459 cycles; total: 8,272,667</title></rect>
<rect x="368.0" y="524.6" width="17" height="0.8" fill="#2f64b0"><title>16x16 C M55 Adam update: 202,110 cycles; total: 8,272,667</title></rect>
<rect x="368.0" y="524.4" width="17" height="0.6" fill="#c9c9c9"><title>16x16 C M55 other/gap: 70,426 cycles; total: 8,272,667</title></rect>
<rect x="368.0" y="524.4" width="17" height="33.6" fill="none" stroke="#222" stroke-width=".45" opacity=".55"/>
<text class="tick" x="376.5" y="580" text-anchor="end" transform="rotate(-45 376.5 580)">C</text>
<rect x="390.0" y="557.7" width="17" height="0.6" fill="#4f6f8f"><title>16x16 C++ direct C backend zero grad: 83,922 cycles; total: 8,232,096</title></rect>
<rect x="390.0" y="542.5" width="17" height="15.1" fill="#2f7f5f"><title>16x16 C++ direct C backend forward: 3,721,227 cycles; total: 8,232,096</title></rect>
<rect x="390.0" y="542.4" width="17" height="0.6" fill="#d08a2f"><title>16x16 C++ direct C backend loss/grad: 42,677 cycles; total: 8,232,096</title></rect>
<rect x="390.0" y="525.6" width="17" height="16.7" fill="#b64b4b"><title>16x16 C++ direct C backend backward: 4,118,639 cycles; total: 8,232,096</title></rect>
<rect x="390.0" y="524.9" width="17" height="0.7" fill="#2f64b0"><title>16x16 C++ direct C backend Adam update: 168,710 cycles; total: 8,232,096</title></rect>
<rect x="390.0" y="524.5" width="17" height="0.6" fill="#c9c9c9"><title>16x16 C++ direct C backend other/gap: 96,921 cycles; total: 8,232,096</title></rect>
<rect x="390.0" y="524.5" width="17" height="33.5" fill="none" stroke="#222" stroke-width=".45" opacity=".55"/>
<text class="tick" x="398.5" y="580" text-anchor="end" transform="rotate(-45 398.5 580)">Direct</text>
<rect x="412.0" y="557.6" width="17" height="0.6" fill="#4f6f8f"><title>16x16 C++ M55 zero grad: 89,813 cycles; total: 5,928,696</title></rect>
<rect x="412.0" y="546.2" width="17" height="11.4" fill="#2f7f5f"><title>16x16 C++ M55 forward: 2,815,389 cycles; total: 5,928,696</title></rect>
<rect x="412.0" y="546.1" width="17" height="0.6" fill="#d08a2f"><title>16x16 C++ M55 loss/grad: 29,690 cycles; total: 5,928,696</title></rect>
<rect x="412.0" y="534.9" width="17" height="11.2" fill="#b64b4b"><title>16x16 C++ M55 backward: 2,756,650 cycles; total: 5,928,696</title></rect>
<rect x="412.0" y="534.2" width="17" height="0.7" fill="#2f64b0"><title>16x16 C++ M55 Adam update: 166,227 cycles; total: 5,928,696</title></rect>
<rect x="412.0" y="533.9" width="17" height="0.6" fill="#c9c9c9"><title>16x16 C++ M55 other/gap: 70,927 cycles; total: 5,928,696</title></rect>
<rect x="412.0" y="533.9" width="17" height="24.1" fill="none" stroke="#222" stroke-width=".45" opacity=".55"/>
<text class="tick" x="420.5" y="580" text-anchor="end" transform="rotate(-45 420.5 580)">M55</text>
<rect x="434.0" y="557.6" width="17" height="0.6" fill="#4f6f8f"><title>16x16 C++ generic zero grad: 90,278 cycles; total: 6,893,469</title></rect>
<rect x="434.0" y="546.5" width="17" height="11.2" fill="#2f7f5f"><title>16x16 C++ generic forward: 2,742,698 cycles; total: 6,893,469</title></rect>
<rect x="434.0" y="546.3" width="17" height="0.6" fill="#d08a2f"><title>16x16 C++ generic loss/grad: 39,943 cycles; total: 6,893,469</title></rect>
<rect x="434.0" y="530.9" width="17" height="15.4" fill="#b64b4b"><title>16x16 C++ generic backward: 3,789,336 cycles; total: 6,893,469</title></rect>
<rect x="434.0" y="530.2" width="17" height="0.7" fill="#2f64b0"><title>16x16 C++ generic Adam update: 182,966 cycles; total: 6,893,469</title></rect>
<rect x="434.0" y="530.0" width="17" height="0.6" fill="#c9c9c9"><title>16x16 C++ generic other/gap: 48,248 cycles; total: 6,893,469</title></rect>
<rect x="434.0" y="530.0" width="17" height="28.0" fill="none" stroke="#222" stroke-width=".45" opacity=".55"/>
<text class="tick" x="442.5" y="580" text-anchor="end" transform="rotate(-45 442.5 580)">Generic</text>
<rect x="456.0" y="557.9" width="17" height="0.6" fill="#4f6f8f"><title>16x16 RLTools generic zero grad: 14,494 cycles; total: 9,963,787</title></rect>
<rect x="456.0" y="557.8" width="17" height="0.6" fill="#7c5aa6"><title>16x16 RLTools generic input copy: 42,622 cycles; total: 9,963,787</title></rect>
<rect x="456.0" y="548.3" width="17" height="9.5" fill="#2f7f5f"><title>16x16 RLTools generic forward: 2,333,224 cycles; total: 9,963,787</title></rect>
<rect x="456.0" y="548.3" width="17" height="0.6" fill="#d08a2f"><title>16x16 RLTools generic loss/grad: 2,048 cycles; total: 9,963,787</title></rect>
<rect x="456.0" y="518.7" width="17" height="29.6" fill="#b64b4b"><title>16x16 RLTools generic backward: 7,275,607 cycles; total: 9,963,787</title></rect>
<rect x="456.0" y="517.9" width="17" height="0.8" fill="#2f64b0"><title>16x16 RLTools generic Adam update: 192,461 cycles; total: 9,963,787</title></rect>
<rect x="456.0" y="517.5" width="17" height="0.6" fill="#c9c9c9"><title>16x16 RLTools generic other/gap: 103,331 cycles; total: 9,963,787</title></rect>
<rect x="456.0" y="517.5" width="17" height="40.5" fill="none" stroke="#222" stroke-width=".45" opacity=".55"/>
<text class="tick" x="464.5" y="580" text-anchor="end" transform="rotate(-45 464.5 580)">RLTools</text>
<text class="label" x="559.5" y="634" text-anchor="middle">32x16</text>
<rect x="507.0" y="557.9" width="17" height="0.6" fill="#4f6f8f"><title>32x16 C M55 zero grad: 13,386 cycles; total: 11,903,645</title></rect>
<rect x="507.0" y="511.2" width="17" height="46.7" fill="#6f6f6f"><title>32x16 C M55 C train step: 11,489,109 cycles; total: 11,903,645</title></rect>
<rect x="507.0" y="509.9" width="17" height="1.4" fill="#2f64b0"><title>32x16 C M55 Adam update: 334,580 cycles; total: 11,903,645</title></rect>
<rect x="507.0" y="509.6" width="17" height="0.6" fill="#c9c9c9"><title>32x16 C M55 other/gap: 66,570 cycles; total: 11,903,645</title></rect>
<rect x="507.0" y="509.6" width="17" height="48.4" fill="none" stroke="#222" stroke-width=".45" opacity=".55"/>
<text class="tick" x="515.5" y="580" text-anchor="end" transform="rotate(-45 515.5 580)">C</text>
<rect x="529.0" y="557.4" width="17" height="0.6" fill="#4f6f8f"><title>32x16 C++ direct C backend zero grad: 150,917 cycles; total: 11,954,472</title></rect>
<rect x="529.0" y="535.4" width="17" height="22.0" fill="#2f7f5f"><title>32x16 C++ direct C backend forward: 5,415,299 cycles; total: 11,954,472</title></rect>
<rect x="529.0" y="535.2" width="17" height="0.6" fill="#d08a2f"><title>32x16 C++ direct C backend loss/grad: 44,113 cycles; total: 11,954,472</title></rect>
<rect x="529.0" y="510.9" width="17" height="24.3" fill="#b64b4b"><title>32x16 C++ direct C backend backward: 5,980,056 cycles; total: 11,954,472</title></rect>
<rect x="529.0" y="509.7" width="17" height="1.2" fill="#2f64b0"><title>32x16 C++ direct C backend Adam update: 290,610 cycles; total: 11,954,472</title></rect>
<rect x="529.0" y="509.4" width="17" height="0.6" fill="#c9c9c9"><title>32x16 C++ direct C backend other/gap: 73,477 cycles; total: 11,954,472</title></rect>
<rect x="529.0" y="509.4" width="17" height="48.6" fill="none" stroke="#222" stroke-width=".45" opacity=".55"/>
<text class="tick" x="537.5" y="580" text-anchor="end" transform="rotate(-45 537.5 580)">Direct</text>
<rect x="551.0" y="557.4" width="17" height="0.6" fill="#4f6f8f"><title>32x16 C++ M55 zero grad: 153,966 cycles; total: 10,492,948</title></rect>
<rect x="551.0" y="538.9" width="17" height="18.5" fill="#2f7f5f"><title>32x16 C++ M55 forward: 4,540,840 cycles; total: 10,492,948</title></rect>
<rect x="551.0" y="538.7" width="17" height="0.6" fill="#d08a2f"><title>32x16 C++ M55 loss/grad: 43,890 cycles; total: 10,492,948</title></rect>
<rect x="551.0" y="516.8" width="17" height="21.9" fill="#b64b4b"><title>32x16 C++ M55 backward: 5,384,853 cycles; total: 10,492,948</title></rect>
<rect x="551.0" y="515.6" width="17" height="1.2" fill="#2f64b0"><title>32x16 C++ M55 Adam update: 298,380 cycles; total: 10,492,948</title></rect>
<rect x="551.0" y="515.3" width="17" height="0.6" fill="#c9c9c9"><title>32x16 C++ M55 other/gap: 71,019 cycles; total: 10,492,948</title></rect>
<rect x="551.0" y="515.3" width="17" height="42.7" fill="none" stroke="#222" stroke-width=".45" opacity=".55"/>
<text class="tick" x="559.5" y="580" text-anchor="end" transform="rotate(-45 559.5 580)">M55</text>
<rect x="573.0" y="557.4" width="17" height="0.6" fill="#4f6f8f"><title>32x16 C++ generic zero grad: 153,427 cycles; total: 12,425,290</title></rect>
<rect x="573.0" y="539.8" width="17" height="17.6" fill="#2f7f5f"><title>32x16 C++ generic forward: 4,323,924 cycles; total: 12,425,290</title></rect>
<rect x="573.0" y="539.6" width="17" height="0.6" fill="#d08a2f"><title>32x16 C++ generic loss/grad: 36,128 cycles; total: 12,425,290</title></rect>
<rect x="573.0" y="509.0" width="17" height="30.6" fill="#b64b4b"><title>32x16 C++ generic backward: 7,529,251 cycles; total: 12,425,290</title></rect>
<rect x="573.0" y="507.7" width="17" height="1.3" fill="#2f64b0"><title>32x16 C++ generic Adam update: 318,390 cycles; total: 12,425,290</title></rect>
<rect x="573.0" y="507.5" width="17" height="0.6" fill="#c9c9c9"><title>32x16 C++ generic other/gap: 64,170 cycles; total: 12,425,290</title></rect>
<rect x="573.0" y="507.5" width="17" height="50.5" fill="none" stroke="#222" stroke-width=".45" opacity=".55"/>
<text class="tick" x="581.5" y="580" text-anchor="end" transform="rotate(-45 581.5 580)">Generic</text>
<rect x="595.0" y="557.5" width="17" height="0.6" fill="#4f6f8f"><title>32x16 RLTools generic zero grad: 131,877 cycles; total: 25,662,706</title></rect>
<rect x="595.0" y="557.3" width="17" height="0.6" fill="#7c5aa6"><title>32x16 RLTools generic input copy: 43,436 cycles; total: 25,662,706</title></rect>
<rect x="595.0" y="520.2" width="17" height="37.1" fill="#2f7f5f"><title>32x16 RLTools generic forward: 9,115,427 cycles; total: 25,662,706</title></rect>
<rect x="595.0" y="520.2" width="17" height="0.6" fill="#d08a2f"><title>32x16 RLTools generic loss/grad: 2,048 cycles; total: 25,662,706</title></rect>
<rect x="595.0" y="456.6" width="17" height="63.6" fill="#b64b4b"><title>32x16 RLTools generic backward: 15,641,703 cycles; total: 25,662,706</title></rect>
<rect x="595.0" y="455.3" width="17" height="1.3" fill="#2f64b0"><title>32x16 RLTools generic Adam update: 331,075 cycles; total: 25,662,706</title></rect>
<rect x="595.0" y="453.6" width="17" height="1.6" fill="#c9c9c9"><title>32x16 RLTools generic other/gap: 397,140 cycles; total: 25,662,706</title></rect>
<rect x="595.0" y="453.6" width="17" height="104.4" fill="none" stroke="#222" stroke-width=".45" opacity=".55"/>
<text class="tick" x="603.5" y="580" text-anchor="end" transform="rotate(-45 603.5 580)">RLTools</text>
<text class="label" x="698.5" y="634" text-anchor="middle">32x32</text>
<rect x="646.0" y="557.9" width="17" height="0.6" fill="#4f6f8f"><title>32x32 C M55 zero grad: 21,754 cycles; total: 17,479,505</title></rect>
<rect x="646.0" y="489.5" width="17" height="68.4" fill="#6f6f6f"><title>32x32 C M55 C train step: 16,824,284 cycles; total: 17,479,505</title></rect>
<rect x="646.0" y="487.2" width="17" height="2.3" fill="#2f64b0"><title>32x32 C M55 Adam update: 570,909 cycles; total: 17,479,505</title></rect>
<rect x="646.0" y="486.9" width="17" height="0.6" fill="#c9c9c9"><title>32x32 C M55 other/gap: 62,558 cycles; total: 17,479,505</title></rect>
<rect x="646.0" y="486.9" width="17" height="71.1" fill="none" stroke="#222" stroke-width=".45" opacity=".55"/>
<text class="tick" x="654.5" y="580" text-anchor="end" transform="rotate(-45 654.5 580)">C</text>
<rect x="668.0" y="556.9" width="17" height="1.1" fill="#4f6f8f"><title>32x32 C++ direct C backend zero grad: 272,879 cycles; total: 17,652,386</title></rect>
<rect x="668.0" y="525.8" width="17" height="31.1" fill="#2f7f5f"><title>32x32 C++ direct C backend forward: 7,642,370 cycles; total: 17,652,386</title></rect>
<rect x="668.0" y="525.6" width="17" height="0.6" fill="#d08a2f"><title>32x32 C++ direct C backend loss/grad: 50,347 cycles; total: 17,652,386</title></rect>
<rect x="668.0" y="488.7" width="17" height="37.0" fill="#b64b4b"><title>32x32 C++ direct C backend backward: 9,086,998 cycles; total: 17,652,386</title></rect>
<rect x="668.0" y="486.6" width="17" height="2.0" fill="#2f64b0"><title>32x32 C++ direct C backend Adam update: 496,078 cycles; total: 17,652,386</title></rect>
<rect x="668.0" y="486.2" width="17" height="0.6" fill="#c9c9c9"><title>32x32 C++ direct C backend other/gap: 103,714 cycles; total: 17,652,386</title></rect>
<rect x="668.0" y="486.2" width="17" height="71.8" fill="none" stroke="#222" stroke-width=".45" opacity=".55"/>
<text class="tick" x="676.5" y="580" text-anchor="end" transform="rotate(-45 676.5 580)">Direct</text>
<rect x="690.0" y="556.8" width="17" height="1.2" fill="#4f6f8f"><title>32x32 C++ M55 zero grad: 282,902 cycles; total: 18,024,430</title></rect>
<rect x="690.0" y="527.0" width="17" height="29.9" fill="#2f7f5f"><title>32x32 C++ M55 forward: 7,350,068 cycles; total: 18,024,430</title></rect>
<rect x="690.0" y="525.2" width="17" height="1.8" fill="#d08a2f"><title>32x32 C++ M55 loss/grad: 440,833 cycles; total: 18,024,430</title></rect>
<rect x="690.0" y="487.0" width="17" height="38.2" fill="#b64b4b"><title>32x32 C++ M55 backward: 9,387,921 cycles; total: 18,024,430</title></rect>
<rect x="690.0" y="485.0" width="17" height="2.0" fill="#2f64b0"><title>32x32 C++ M55 Adam update: 479,822 cycles; total: 18,024,430</title></rect>
<rect x="690.0" y="484.7" width="17" height="0.6" fill="#c9c9c9"><title>32x32 C++ M55 other/gap: 82,884 cycles; total: 18,024,430</title></rect>
<rect x="690.0" y="484.7" width="17" height="73.3" fill="none" stroke="#222" stroke-width=".45" opacity=".55"/>
<text class="tick" x="698.5" y="580" text-anchor="end" transform="rotate(-45 698.5 580)">M55</text>
<rect x="712.0" y="556.9" width="17" height="1.1" fill="#4f6f8f"><title>32x32 C++ generic zero grad: 281,066 cycles; total: 22,446,833</title></rect>
<rect x="712.0" y="525.1" width="17" height="31.8" fill="#2f7f5f"><title>32x32 C++ generic forward: 7,808,372 cycles; total: 22,446,833</title></rect>
<rect x="712.0" y="524.9" width="17" height="0.6" fill="#d08a2f"><title>32x32 C++ generic loss/grad: 43,218 cycles; total: 22,446,833</title></rect>
<rect x="712.0" y="469.1" width="17" height="55.9" fill="#b64b4b"><title>32x32 C++ generic backward: 13,736,803 cycles; total: 22,446,833</title></rect>
<rect x="712.0" y="467.0" width="17" height="2.1" fill="#2f64b0"><title>32x32 C++ generic Adam update: 505,525 cycles; total: 22,446,833</title></rect>
<rect x="712.0" y="466.7" width="17" height="0.6" fill="#c9c9c9"><title>32x32 C++ generic other/gap: 71,849 cycles; total: 22,446,833</title></rect>
<rect x="712.0" y="466.7" width="17" height="91.3" fill="none" stroke="#222" stroke-width=".45" opacity=".55"/>
<text class="tick" x="720.5" y="580" text-anchor="end" transform="rotate(-45 720.5 580)">Generic</text>
<rect x="734.0" y="556.9" width="17" height="1.1" fill="#4f6f8f"><title>32x32 RLTools generic zero grad: 261,119 cycles; total: 52,134,747</title></rect>
<rect x="734.0" y="556.8" width="17" height="0.6" fill="#7c5aa6"><title>32x32 RLTools generic input copy: 43,199 cycles; total: 52,134,747</title></rect>
<rect x="734.0" y="475.0" width="17" height="81.7" fill="#2f7f5f"><title>32x32 RLTools generic forward: 20,101,839 cycles; total: 52,134,747</title></rect>
<rect x="734.0" y="475.0" width="17" height="0.6" fill="#d08a2f"><title>32x32 RLTools generic loss/grad: 2,048 cycles; total: 52,134,747</title></rect>
<rect x="734.0" y="348.8" width="17" height="126.2" fill="#b64b4b"><title>32x32 RLTools generic backward: 31,033,898 cycles; total: 52,134,747</title></rect>
<rect x="734.0" y="346.5" width="17" height="2.3" fill="#2f64b0"><title>32x32 RLTools generic Adam update: 574,682 cycles; total: 52,134,747</title></rect>
<rect x="734.0" y="346.0" width="17" height="0.6" fill="#c9c9c9"><title>32x32 RLTools generic other/gap: 117,962 cycles; total: 52,134,747</title></rect>
<rect x="734.0" y="346.0" width="17" height="212.0" fill="none" stroke="#222" stroke-width=".45" opacity=".55"/>
<text class="tick" x="742.5" y="580" text-anchor="end" transform="rotate(-45 742.5 580)">RLTools</text>
<text class="label" x="837.5" y="634" text-anchor="middle">64x32</text>
<rect x="785.0" y="557.8" width="17" height="0.6" fill="#4f6f8f"><title>64x32 C M55 zero grad: 41,835 cycles; total: 32,705,168</title></rect>
<rect x="785.0" y="432.1" width="17" height="125.8" fill="#6f6f6f"><title>64x32 C M55 C train step: 30,924,253 cycles; total: 32,705,168</title></rect>
<rect x="785.0" y="427.3" width="17" height="4.8" fill="#2f64b0"><title>64x32 C M55 Adam update: 1,171,648 cycles; total: 32,705,168</title></rect>
<rect x="785.0" y="425.0" width="17" height="2.3" fill="#c9c9c9"><title>64x32 C M55 other/gap: 567,432 cycles; total: 32,705,168</title></rect>
<rect x="785.0" y="425.0" width="17" height="133.0" fill="none" stroke="#222" stroke-width=".45" opacity=".55"/>
<text class="tick" x="793.5" y="580" text-anchor="end" transform="rotate(-45 793.5 580)">C</text>
<rect x="807.0" y="555.8" width="17" height="2.2" fill="#4f6f8f"><title>64x32 C++ direct C backend zero grad: 536,239 cycles; total: 39,324,955</title></rect>
<rect x="807.0" y="488.6" width="17" height="67.2" fill="#2f7f5f"><title>64x32 C++ direct C backend forward: 16,536,856 cycles; total: 39,324,955</title></rect>
<rect x="807.0" y="488.3" width="17" height="0.6" fill="#d08a2f"><title>64x32 C++ direct C backend loss/grad: 67,545 cycles; total: 39,324,955</title></rect>
<rect x="807.0" y="409.6" width="17" height="78.7" fill="#b64b4b"><title>64x32 C++ direct C backend backward: 19,360,859 cycles; total: 39,324,955</title></rect>
<rect x="807.0" y="405.3" width="17" height="4.2" fill="#2f64b0"><title>64x32 C++ direct C backend Adam update: 1,043,378 cycles; total: 39,324,955</title></rect>
<rect x="807.0" y="398.1" width="17" height="7.2" fill="#c9c9c9"><title>64x32 C++ direct C backend other/gap: 1,780,078 cycles; total: 39,324,955</title></rect>
<rect x="807.0" y="398.1" width="17" height="159.9" fill="none" stroke="#222" stroke-width=".45" opacity=".55"/>
<text class="tick" x="815.5" y="580" text-anchor="end" transform="rotate(-45 815.5 580)">Direct</text>
<rect x="829.0" y="555.8" width="17" height="2.2" fill="#4f6f8f"><title>64x32 C++ M55 zero grad: 540,206 cycles; total: 29,085,884</title></rect>
<rect x="829.0" y="501.9" width="17" height="53.9" fill="#2f7f5f"><title>64x32 C++ M55 forward: 13,265,841 cycles; total: 29,085,884</title></rect>
<rect x="829.0" y="497.2" width="17" height="4.7" fill="#d08a2f"><title>64x32 C++ M55 loss/grad: 1,149,979 cycles; total: 29,085,884</title></rect>
<rect x="829.0" y="444.3" width="17" height="52.9" fill="#b64b4b"><title>64x32 C++ M55 backward: 12,997,308 cycles; total: 29,085,884</title></rect>
<rect x="829.0" y="440.0" width="17" height="4.3" fill="#2f64b0"><title>64x32 C++ M55 Adam update: 1,060,922 cycles; total: 29,085,884</title></rect>
<rect x="829.0" y="439.7" width="17" height="0.6" fill="#c9c9c9"><title>64x32 C++ M55 other/gap: 71,628 cycles; total: 29,085,884</title></rect>
<rect x="829.0" y="439.7" width="17" height="118.3" fill="none" stroke="#222" stroke-width=".45" opacity=".55"/>
<text class="tick" x="837.5" y="580" text-anchor="end" transform="rotate(-45 837.5 580)">M55</text>
<rect x="851.0" y="555.8" width="17" height="2.2" fill="#4f6f8f"><title>64x32 C++ generic zero grad: 546,012 cycles; total: 39,732,165</title></rect>
<rect x="851.0" y="491.3" width="17" height="64.5" fill="#2f7f5f"><title>64x32 C++ generic forward: 15,855,821 cycles; total: 39,732,165</title></rect>
<rect x="851.0" y="490.5" width="17" height="0.8" fill="#d08a2f"><title>64x32 C++ generic loss/grad: 191,835 cycles; total: 39,732,165</title></rect>
<rect x="851.0" y="400.8" width="17" height="89.7" fill="#b64b4b"><title>64x32 C++ generic backward: 22,054,140 cycles; total: 39,732,165</title></rect>
<rect x="851.0" y="396.7" width="17" height="4.2" fill="#2f64b0"><title>64x32 C++ generic Adam update: 1,025,003 cycles; total: 39,732,165</title></rect>
<rect x="851.0" y="396.4" width="17" height="0.6" fill="#c9c9c9"><title>64x32 C++ generic other/gap: 59,354 cycles; total: 39,732,165</title></rect>
<rect x="851.0" y="396.4" width="17" height="161.6" fill="none" stroke="#222" stroke-width=".45" opacity=".55"/>
<text class="tick" x="859.5" y="580" text-anchor="end" transform="rotate(-45 859.5 580)">Generic</text>
<rect x="873.0" y="556.0" width="17" height="2.0" fill="#4f6f8f"><title>64x32 RLTools generic zero grad: 500,819 cycles; total: 110,574,536</title></rect>
<rect x="873.0" y="555.8" width="17" height="0.6" fill="#7c5aa6"><title>64x32 RLTools generic input copy: 46,280 cycles; total: 110,574,536</title></rect>
<rect x="873.0" y="395.1" width="17" height="160.7" fill="#2f7f5f"><title>64x32 RLTools generic forward: 39,513,391 cycles; total: 110,574,536</title></rect>
<rect x="873.0" y="395.1" width="17" height="0.6" fill="#d08a2f"><title>64x32 RLTools generic loss/grad: 4,096 cycles; total: 110,574,536</title></rect>
<rect x="873.0" y="114.2" width="17" height="280.9" fill="#b64b4b"><title>64x32 RLTools generic backward: 69,077,694 cycles; total: 110,574,536</title></rect>
<rect x="873.0" y="109.0" width="17" height="5.2" fill="#2f64b0"><title>64x32 RLTools generic Adam update: 1,270,801 cycles; total: 110,574,536</title></rect>
<rect x="873.0" y="108.3" width="17" height="0.7" fill="#c9c9c9"><title>64x32 RLTools generic other/gap: 161,455 cycles; total: 110,574,536</title></rect>
<rect x="873.0" y="108.3" width="17" height="449.7" fill="none" stroke="#222" stroke-width=".45" opacity=".55"/>
<text class="tick" x="881.5" y="580" text-anchor="end" transform="rotate(-45 881.5 580)">RLTools</text>
<text class="label" transform="translate(24 314.0) rotate(-90)" text-anchor="middle">cycles per measured run</text>
<text class="legend" x="934" y="62">Components</text>
<rect x="934" y="66" width="16" height="16" fill="#4f6f8f"/>
<text class="legend" x="958" y="79">zero grad</text>
<rect x="934" y="87" width="16" height="16" fill="#7c5aa6"/>
<text class="legend" x="958" y="100">input copy</text>
<rect x="934" y="108" width="16" height="16" fill="#2f7f5f"/>
<text class="legend" x="958" y="121">forward</text>
<rect x="934" y="129" width="16" height="16" fill="#d08a2f"/>
<text class="legend" x="958" y="142">loss/grad</text>
<rect x="934" y="150" width="16" height="16" fill="#b64b4b"/>
<text class="legend" x="958" y="163">backward</text>
<rect x="934" y="171" width="16" height="16" fill="#6f6f6f"/>
<text class="legend" x="958" y="184">C train step</text>
<rect x="934" y="192" width="16" height="16" fill="#2f64b0"/>
<text class="legend" x="958" y="205">Adam update</text>
<rect x="934" y="213" width="16" height="16" fill="#c9c9c9"/>
<text class="legend" x="958" y="226">other/gap</text>
<text class="legend" x="934" y="272">Variant order</text>
<text class="legend" x="934" y="288">C: C M55</text>
<text class="legend" x="934" y="307">Direct: C++ direct C backend</text>
<text class="legend" x="934" y="326">M55: C++ M55</text>
<text class="legend" x="934" y="345">Generic: C++ generic</text>
<text class="legend" x="934" y="364">RLTools: RLTools generic</text>
</svg>
