<svg xmlns="http://www.w3.org/2000/svg" width="1127" height="650" viewBox="0 0 1127 650">
<rect width="100%" height="100%" fill="#ffffff"/>
<style>text{font-family:Arial,Helvetica,sans-serif;fill:#202020}.axis{stroke:#222;stroke-width:1.2}.grid{stroke:#dedede;stroke-width:1}.title{font-size:20px;font-weight:700}.subtitle{font-size:12px;fill:#555}.label{font-size:13px}.tick{font-size:11px}.legend{font-size:12px}.baroutline{fill:none;stroke:#222;stroke-width:.5;opacity:.45}</style>
<text class="title" x="82" y="34">STM32N6 firmware ELF component breakdown</text>
<text class="subtitle" x="82" y="52">One ELF per variant and topology; stacked bars show arm-none-eabi-size text/data/bss.</text>
<line class="axis" x1="82" y1="538" x2="852" y2="538"/>
<line class="axis" x1="82" y1="66" x2="82" y2="538"/>
<line class="grid" x1="82" y1="538.0" x2="852" y2="538.0"/>
<text class="tick" x="72" y="542.0" text-anchor="end">0 KiB</text>
<line class="grid" x1="82" y1="443.6" x2="852" y2="443.6"/>
<text class="tick" x="72" y="447.6" text-anchor="end">29 KiB</text>
<line class="grid" x1="82" y1="349.2" x2="852" y2="349.2"/>
<text class="tick" x="72" y="353.2" text-anchor="end">58 KiB</text>
<line class="grid" x1="82" y1="254.8" x2="852" y2="254.8"/>
<text class="tick" x="72" y="258.8" text-anchor="end">86 KiB</text>
<line class="grid" x1="82" y1="160.4" x2="852" y2="160.4"/>
<text class="tick" x="72" y="164.4" text-anchor="end">115 KiB</text>
<line class="grid" x1="82" y1="66.0" x2="852" y2="66.0"/>
<text class="tick" x="72" y="70.0" text-anchor="end">144 KiB</text>
<text class="label" x="132.0" y="610" text-anchor="middle">8x8</text>
<rect x="82.0" y="383.9" width="16" height="154.1" fill="#356bb0"><title>8x8 C M55 text: 48,140 bytes; ELF dec: 79,636; model state: 3,296</title></rect>
<rect x="82.0" y="383.6" width="16" height="0.5" fill="#e0a22e"><title>8x8 C M55 data: 92 bytes; ELF dec: 79,636; model state: 3,296</title></rect>
<rect x="82.0" y="283.1" width="16" height="100.5" fill="#4f9f68"><title>8x8 C M55 bss: 31,404 bytes; ELF dec: 79,636; model state: 3,296</title></rect>
<rect class="baroutline" x="82.0" y="283.1" width="16" height="254.9"/>
<text class="tick" x="90.0" y="558" text-anchor="end" transform="rotate(-45 90.0 558)">C</text>
<rect x="103.0" y="393.3" width="16" height="144.7" fill="#356bb0"><title>8x8 C++ direct C backend text: 45,196 bytes; ELF dec: 75,500; model state: 2,080</title></rect>
<rect x="103.0" y="393.0" width="16" height="0.5" fill="#e0a22e"><title>8x8 C++ direct C backend data: 92 bytes; ELF dec: 75,500; model state: 2,080</title></rect>
<rect x="103.0" y="296.3" width="16" height="96.7" fill="#4f9f68"><title>8x8 C++ direct C backend bss: 30,212 bytes; ELF dec: 75,500; model state: 2,080</title></rect>
<rect class="baroutline" x="103.0" y="296.3" width="16" height="241.7"/>
<text class="tick" x="111.0" y="558" text-anchor="end" transform="rotate(-45 111.0 558)">Direct</text>
<rect x="124.0" y="409.0" width="16" height="129.0" fill="#356bb0"><title>8x8 C++ M55 text: 40,308 bytes; ELF dec: 70,596; model state: 2,080</title></rect>
<rect x="124.0" y="408.6" width="16" height="0.5" fill="#e0a22e"><title>8x8 C++ M55 data: 112 bytes; ELF dec: 70,596; model state: 2,080</title></rect>
<rect x="124.0" y="312.0" width="16" height="96.6" fill="#4f9f68"><title>8x8 C++ M55 bss: 30,176 bytes; ELF dec: 70,596; model state: 2,080</title></rect>
<rect class="baroutline" x="124.0" y="312.0" width="16" height="226.0"/>
<text class="tick" x="132.0" y="558" text-anchor="end" transform="rotate(-45 132.0 558)">M55</text>
<rect x="145.0" y="406.9" width="16" height="131.1" fill="#356bb0"><title>8x8 C++ generic text: 40,956 bytes; ELF dec: 71,140; model state: 1,976</title></rect>
<rect x="145.0" y="406.5" width="16" height="0.5" fill="#e0a22e"><title>8x8 C++ generic data: 112 bytes; ELF dec: 71,140; model state: 1,976</title></rect>
<rect x="145.0" y="310.3" width="16" height="96.3" fill="#4f9f68"><title>8x8 C++ generic bss: 30,072 bytes; ELF dec: 71,140; model state: 1,976</title></rect>
<rect class="baroutline" x="145.0" y="310.3" width="16" height="227.7"/>
<text class="tick" x="153.0" y="558" text-anchor="end" transform="rotate(-45 153.0 558)">Generic</text>
<rect x="166.0" y="386.6" width="16" height="151.4" fill="#356bb0"><title>8x8 RLTools generic text: 47,284 bytes; ELF dec: 77,564; model state: 1,948</title></rect>
<rect x="166.0" y="386.4" width="16" height="0.5" fill="#e0a22e"><title>8x8 RLTools generic data: 92 bytes; ELF dec: 77,564; model state: 1,948</title></rect>
<rect x="166.0" y="289.7" width="16" height="96.6" fill="#4f9f68"><title>8x8 RLTools generic bss: 30,188 bytes; ELF dec: 77,564; model state: 1,948</title></rect>
<rect class="baroutline" x="166.0" y="289.7" width="16" height="248.3"/>
<text class="tick" x="174.0" y="558" text-anchor="end" transform="rotate(-45 174.0 558)">RLTools</text>
<text class="label" x="266.0" y="610" text-anchor="middle">16x8</text>
<rect x="216.0" y="383.9" width="16" height="154.1" fill="#356bb0"><title>16x8 C M55 text: 48,156 bytes; ELF dec: 82,052; model state: 4,928</title></rect>
<rect x="216.0" y="383.6" width="16" height="0.5" fill="#e0a22e"><title>16x8 C M55 data: 92 bytes; ELF dec: 82,052; model state: 4,928</title></rect>
<rect x="216.0" y="275.4" width="16" height="108.2" fill="#4f9f68"><title>16x8 C M55 bss: 33,804 bytes; ELF dec: 82,052; model state: 4,928</title></rect>
<rect class="baroutline" x="216.0" y="275.4" width="16" height="262.6"/>
<text class="tick" x="224.0" y="558" text-anchor="end" transform="rotate(-45 224.0 558)">C</text>
<rect x="237.0" y="393.4" width="16" height="144.6" fill="#356bb0"><title>16x8 C++ direct C backend text: 45,188 bytes; ELF dec: 77,892; model state: 3,712</title></rect>
<rect x="237.0" y="393.1" width="16" height="0.5" fill="#e0a22e"><title>16x8 C++ direct C backend data: 92 bytes; ELF dec: 77,892; model state: 3,712</title></rect>
<rect x="237.0" y="288.7" width="16" height="104.4" fill="#4f9f68"><title>16x8 C++ direct C backend bss: 32,612 bytes; ELF dec: 77,892; model state: 3,712</title></rect>
<rect class="baroutline" x="237.0" y="288.7" width="16" height="249.3"/>
<text class="tick" x="245.0" y="558" text-anchor="end" transform="rotate(-45 245.0 558)">Direct</text>
<rect x="258.0" y="409.6" width="16" height="128.4" fill="#356bb0"><title>16x8 C++ M55 text: 40,108 bytes; ELF dec: 72,796; model state: 3,712</title></rect>
<rect x="258.0" y="409.3" width="16" height="0.5" fill="#e0a22e"><title>16x8 C++ M55 data: 112 bytes; ELF dec: 72,796; model state: 3,712</title></rect>
<rect x="258.0" y="305.0" width="16" height="104.3" fill="#4f9f68"><title>16x8 C++ M55 bss: 32,576 bytes; ELF dec: 72,796; model state: 3,712</title></rect>
<rect class="baroutline" x="258.0" y="305.0" width="16" height="233.0"/>
<text class="tick" x="266.0" y="558" text-anchor="end" transform="rotate(-45 266.0 558)">M55</text>
<rect x="279.0" y="409.7" width="16" height="128.3" fill="#356bb0"><title>16x8 C++ generic text: 40,076 bytes; ELF dec: 72,660; model state: 3,608</title></rect>
<rect x="279.0" y="409.4" width="16" height="0.5" fill="#e0a22e"><title>16x8 C++ generic data: 112 bytes; ELF dec: 72,660; model state: 3,608</title></rect>
<rect x="279.0" y="305.4" width="16" height="103.9" fill="#4f9f68"><title>16x8 C++ generic bss: 32,472 bytes; ELF dec: 72,660; model state: 3,608</title></rect>
<rect class="baroutline" x="279.0" y="305.4" width="16" height="232.6"/>
<text class="tick" x="287.0" y="558" text-anchor="end" transform="rotate(-45 287.0 558)">Generic</text>
<rect x="300.0" y="391.3" width="16" height="146.7" fill="#356bb0"><title>16x8 RLTools generic text: 45,820 bytes; ELF dec: 78,532; model state: 3,548</title></rect>
<rect x="300.0" y="391.0" width="16" height="0.5" fill="#e0a22e"><title>16x8 RLTools generic data: 92 bytes; ELF dec: 78,532; model state: 3,548</title></rect>
<rect x="300.0" y="286.6" width="16" height="104.4" fill="#4f9f68"><title>16x8 RLTools generic bss: 32,620 bytes; ELF dec: 78,532; model state: 3,548</title></rect>
<rect class="baroutline" x="300.0" y="286.6" width="16" height="251.4"/>
<text class="tick" x="308.0" y="558" text-anchor="end" transform="rotate(-45 308.0 558)">RLTools</text>
<text class="label" x="400.0" y="610" text-anchor="middle">16x16</text>
<rect x="350.0" y="383.9" width="16" height="154.1" fill="#356bb0"><title>16x16 C M55 text: 48,156 bytes; ELF dec: 85,540; model state: 7,264</title></rect>
<rect x="350.0" y="383.6" width="16" height="0.5" fill="#e0a22e"><title>16x16 C M55 data: 92 bytes; ELF dec: 85,540; model state: 7,264</title></rect>
<rect x="350.0" y="264.2" width="16" height="119.4" fill="#4f9f68"><title>16x16 C M55 bss: 37,292 bytes; ELF dec: 85,540; model state: 7,264</title></rect>
<rect class="baroutline" x="350.0" y="264.2" width="16" height="273.8"/>
<text class="tick" x="358.0" y="558" text-anchor="end" transform="rotate(-45 358.0 558)">C</text>
<rect x="371.0" y="393.3" width="16" height="144.7" fill="#356bb0"><title>16x16 C++ direct C backend text: 45,220 bytes; ELF dec: 81,412; model state: 6,048</title></rect>
<rect x="371.0" y="393.0" width="16" height="0.5" fill="#e0a22e"><title>16x16 C++ direct C backend data: 92 bytes; ELF dec: 81,412; model state: 6,048</title></rect>
<rect x="371.0" y="277.4" width="16" height="115.6" fill="#4f9f68"><title>16x16 C++ direct C backend bss: 36,100 bytes; ELF dec: 81,412; model state: 6,048</title></rect>
<rect class="baroutline" x="371.0" y="277.4" width="16" height="260.6"/>
<text class="tick" x="379.0" y="558" text-anchor="end" transform="rotate(-45 379.0 558)">Direct</text>
<rect x="392.0" y="410.6" width="16" height="127.4" fill="#356bb0"><title>16x16 C++ M55 text: 39,788 bytes; ELF dec: 75,964; model state: 6,048</title></rect>
<rect x="392.0" y="410.3" width="16" height="0.5" fill="#e0a22e"><title>16x16 C++ M55 data: 112 bytes; ELF dec: 75,964; model state: 6,048</title></rect>
<rect x="392.0" y="294.8" width="16" height="115.4" fill="#4f9f68"><title>16x16 C++ M55 bss: 36,064 bytes; ELF dec: 75,964; model state: 6,048</title></rect>
<rect class="baroutline" x="392.0" y="294.8" width="16" height="243.2"/>
<text class="tick" x="400.0" y="558" text-anchor="end" transform="rotate(-45 400.0 558)">M55</text>
<rect x="413.0" y="405.3" width="16" height="132.7" fill="#356bb0"><title>16x16 C++ generic text: 41,468 bytes; ELF dec: 77,540; model state: 5,944</title></rect>
<rect x="413.0" y="404.9" width="16" height="0.5" fill="#e0a22e"><title>16x16 C++ generic data: 112 bytes; ELF dec: 77,540; model state: 5,944</title></rect>
<rect x="413.0" y="289.8" width="16" height="115.1" fill="#4f9f68"><title>16x16 C++ generic bss: 35,960 bytes; ELF dec: 77,540; model state: 5,944</title></rect>
<rect class="baroutline" x="413.0" y="289.8" width="16" height="248.2"/>
<text class="tick" x="421.0" y="558" text-anchor="end" transform="rotate(-45 421.0 558)">Generic</text>
<rect x="434.0" y="383.9" width="16" height="154.1" fill="#356bb0"><title>16x16 RLTools generic text: 48,148 bytes; ELF dec: 84,380; model state: 5,916</title></rect>
<rect x="434.0" y="383.6" width="16" height="0.5" fill="#e0a22e"><title>16x16 RLTools generic data: 92 bytes; ELF dec: 84,380; model state: 5,916</title></rect>
<rect x="434.0" y="267.9" width="16" height="115.7" fill="#4f9f68"><title>16x16 RLTools generic bss: 36,140 bytes; ELF dec: 84,380; model state: 5,916</title></rect>
<rect class="baroutline" x="434.0" y="267.9" width="16" height="270.1"/>
<text class="tick" x="442.0" y="558" text-anchor="end" transform="rotate(-45 442.0 558)">RLTools</text>
<text class="label" x="534.0" y="610" text-anchor="middle">32x16</text>
<rect x="484.0" y="383.8" width="16" height="154.2" fill="#356bb0"><title>32x16 C M55 text: 48,180 bytes; ELF dec: 93,436; model state: 12,576</title></rect>
<rect x="484.0" y="383.5" width="16" height="0.5" fill="#e0a22e"><title>32x16 C M55 data: 92 bytes; ELF dec: 93,436; model state: 12,576</title></rect>
<rect x="484.0" y="238.9" width="16" height="144.6" fill="#4f9f68"><title>32x16 C M55 bss: 45,164 bytes; ELF dec: 93,436; model state: 12,576</title></rect>
<rect class="baroutline" x="484.0" y="238.9" width="16" height="299.1"/>
<text class="tick" x="492.0" y="558" text-anchor="end" transform="rotate(-45 492.0 558)">C</text>
<rect x="505.0" y="393.3" width="16" height="144.7" fill="#356bb0"><title>32x16 C++ direct C backend text: 45,220 bytes; ELF dec: 89,284; model state: 11,360</title></rect>
<rect x="505.0" y="393.0" width="16" height="0.5" fill="#e0a22e"><title>32x16 C++ direct C backend data: 92 bytes; ELF dec: 89,284; model state: 11,360</title></rect>
<rect x="505.0" y="252.2" width="16" height="140.8" fill="#4f9f68"><title>32x16 C++ direct C backend bss: 43,972 bytes; ELF dec: 89,284; model state: 11,360</title></rect>
<rect class="baroutline" x="505.0" y="252.2" width="16" height="285.8"/>
<text class="tick" x="513.0" y="558" text-anchor="end" transform="rotate(-45 513.0 558)">Direct</text>
<rect x="526.0" y="411.6" width="16" height="126.4" fill="#356bb0"><title>32x16 C++ M55 text: 39,492 bytes; ELF dec: 83,540; model state: 11,360</title></rect>
<rect x="526.0" y="411.2" width="16" height="0.5" fill="#e0a22e"><title>32x16 C++ M55 data: 112 bytes; ELF dec: 83,540; model state: 11,360</title></rect>
<rect x="526.0" y="270.6" width="16" height="140.6" fill="#4f9f68"><title>32x16 C++ M55 bss: 43,936 bytes; ELF dec: 83,540; model state: 11,360</title></rect>
<rect class="baroutline" x="526.0" y="270.6" width="16" height="267.4"/>
<text class="tick" x="534.0" y="558" text-anchor="end" transform="rotate(-45 534.0 558)">M55</text>
<rect x="547.0" y="404.4" width="16" height="133.6" fill="#356bb0"><title>32x16 C++ generic text: 41,748 bytes; ELF dec: 85,692; model state: 11,256</title></rect>
<rect x="547.0" y="404.0" width="16" height="0.5" fill="#e0a22e"><title>32x16 C++ generic data: 112 bytes; ELF dec: 85,692; model state: 11,256</title></rect>
<rect x="547.0" y="263.7" width="16" height="140.3" fill="#4f9f68"><title>32x16 C++ generic bss: 43,832 bytes; ELF dec: 85,692; model state: 11,256</title></rect>
<rect class="baroutline" x="547.0" y="263.7" width="16" height="274.3"/>
<text class="tick" x="555.0" y="558" text-anchor="end" transform="rotate(-45 555.0 558)">Generic</text>
<rect x="568.0" y="390.2" width="16" height="147.8" fill="#356bb0"><title>32x16 RLTools generic text: 46,180 bytes; ELF dec: 90,348; model state: 11,164</title></rect>
<rect x="568.0" y="389.9" width="16" height="0.5" fill="#e0a22e"><title>32x16 RLTools generic data: 92 bytes; ELF dec: 90,348; model state: 11,164</title></rect>
<rect x="568.0" y="248.8" width="16" height="141.1" fill="#4f9f68"><title>32x16 RLTools generic bss: 44,076 bytes; ELF dec: 90,348; model state: 11,164</title></rect>
<rect class="baroutline" x="568.0" y="248.8" width="16" height="289.2"/>
<text class="tick" x="576.0" y="558" text-anchor="end" transform="rotate(-45 576.0 558)">RLTools</text>
<text class="label" x="668.0" y="610" text-anchor="middle">32x32</text>
<rect x="618.0" y="383.8" width="16" height="154.2" fill="#356bb0"><title>32x32 C M55 text: 48,164 bytes; ELF dec: 106,540; model state: 21,344</title></rect>
<rect x="618.0" y="383.5" width="16" height="0.5" fill="#e0a22e"><title>32x32 C M55 data: 92 bytes; ELF dec: 106,540; model state: 21,344</title></rect>
<rect x="618.0" y="197.0" width="16" height="186.6" fill="#4f9f68"><title>32x32 C M55 bss: 58,284 bytes; ELF dec: 106,540; model state: 21,344</title></rect>
<rect class="baroutline" x="618.0" y="197.0" width="16" height="341.0"/>
<text class="tick" x="626.0" y="558" text-anchor="end" transform="rotate(-45 626.0 558)">C</text>
<rect x="639.0" y="393.2" width="16" height="144.8" fill="#356bb0"><title>32x32 C++ direct C backend text: 45,252 bytes; ELF dec: 102,436; model state: 20,128</title></rect>
<rect x="639.0" y="392.9" width="16" height="0.5" fill="#e0a22e"><title>32x32 C++ direct C backend data: 92 bytes; ELF dec: 102,436; model state: 20,128</title></rect>
<rect x="639.0" y="210.1" width="16" height="182.7" fill="#4f9f68"><title>32x32 C++ direct C backend bss: 57,092 bytes; ELF dec: 102,436; model state: 20,128</title></rect>
<rect class="baroutline" x="639.0" y="210.1" width="16" height="327.9"/>
<text class="tick" x="647.0" y="558" text-anchor="end" transform="rotate(-45 647.0 558)">Direct</text>
<rect x="660.0" y="410.6" width="16" height="127.4" fill="#356bb0"><title>32x32 C++ M55 text: 39,788 bytes; ELF dec: 96,956; model state: 20,128</title></rect>
<rect x="660.0" y="410.3" width="16" height="0.5" fill="#e0a22e"><title>32x32 C++ M55 data: 112 bytes; ELF dec: 96,956; model state: 20,128</title></rect>
<rect x="660.0" y="227.6" width="16" height="182.6" fill="#4f9f68"><title>32x32 C++ M55 bss: 57,056 bytes; ELF dec: 96,956; model state: 20,128</title></rect>
<rect class="baroutline" x="660.0" y="227.6" width="16" height="310.4"/>
<text class="tick" x="668.0" y="558" text-anchor="end" transform="rotate(-45 668.0 558)">M55</text>
<rect x="681.0" y="404.9" width="16" height="133.1" fill="#356bb0"><title>32x32 C++ generic text: 41,588 bytes; ELF dec: 98,652; model state: 20,024</title></rect>
<rect x="681.0" y="404.5" width="16" height="0.5" fill="#e0a22e"><title>32x32 C++ generic data: 112 bytes; ELF dec: 98,652; model state: 20,024</title></rect>
<rect x="681.0" y="222.2" width="16" height="182.3" fill="#4f9f68"><title>32x32 C++ generic bss: 56,952 bytes; ELF dec: 98,652; model state: 20,024</title></rect>
<rect class="baroutline" x="681.0" y="222.2" width="16" height="315.8"/>
<text class="tick" x="689.0" y="558" text-anchor="end" transform="rotate(-45 689.0 558)">Generic</text>
<rect x="702.0" y="396.0" width="16" height="142.0" fill="#356bb0"><title>32x32 RLTools generic text: 44,364 bytes; ELF dec: 101,716; model state: 19,996</title></rect>
<rect x="702.0" y="395.7" width="16" height="0.5" fill="#e0a22e"><title>32x32 RLTools generic data: 92 bytes; ELF dec: 101,716; model state: 19,996</title></rect>
<rect x="702.0" y="212.4" width="16" height="183.3" fill="#4f9f68"><title>32x32 RLTools generic bss: 57,260 bytes; ELF dec: 101,716; model state: 19,996</title></rect>
<rect class="baroutline" x="702.0" y="212.4" width="16" height="325.6"/>
<text class="tick" x="710.0" y="558" text-anchor="end" transform="rotate(-45 710.0 558)">RLTools</text>
<text class="label" x="802.0" y="610" text-anchor="middle">64x32</text>
<rect x="752.0" y="383.8" width="16" height="154.2" fill="#356bb0"><title>64x32 C M55 text: 48,164 bytes; ELF dec: 134,572; model state: 40,160</title></rect>
<rect x="752.0" y="383.5" width="16" height="0.5" fill="#e0a22e"><title>64x32 C M55 data: 92 bytes; ELF dec: 134,572; model state: 40,160</title></rect>
<rect x="752.0" y="107.2" width="16" height="276.3" fill="#4f9f68"><title>64x32 C M55 bss: 86,316 bytes; ELF dec: 134,572; model state: 40,160</title></rect>
<rect class="baroutline" x="752.0" y="107.2" width="16" height="430.8"/>
<text class="tick" x="760.0" y="558" text-anchor="end" transform="rotate(-45 760.0 558)">C</text>
<rect x="773.0" y="393.3" width="16" height="144.7" fill="#356bb0"><title>64x32 C++ direct C backend text: 45,212 bytes; ELF dec: 130,428; model state: 38,944</title></rect>
<rect x="773.0" y="393.0" width="16" height="0.5" fill="#e0a22e"><title>64x32 C++ direct C backend data: 92 bytes; ELF dec: 130,428; model state: 38,944</title></rect>
<rect x="773.0" y="120.5" width="16" height="272.5" fill="#4f9f68"><title>64x32 C++ direct C backend bss: 85,124 bytes; ELF dec: 130,428; model state: 38,944</title></rect>
<rect class="baroutline" x="773.0" y="120.5" width="16" height="417.5"/>
<text class="tick" x="781.0" y="558" text-anchor="end" transform="rotate(-45 781.0 558)">Direct</text>
<rect x="794.0" y="407.2" width="16" height="130.8" fill="#356bb0"><title>64x32 C++ M55 text: 40,860 bytes; ELF dec: 126,060; model state: 38,944</title></rect>
<rect x="794.0" y="406.9" width="16" height="0.5" fill="#e0a22e"><title>64x32 C++ M55 data: 112 bytes; ELF dec: 126,060; model state: 38,944</title></rect>
<rect x="794.0" y="134.5" width="16" height="272.4" fill="#4f9f68"><title>64x32 C++ M55 bss: 85,088 bytes; ELF dec: 126,060; model state: 38,944</title></rect>
<rect class="baroutline" x="794.0" y="134.5" width="16" height="403.5"/>
<text class="tick" x="802.0" y="558" text-anchor="end" transform="rotate(-45 802.0 558)">M55</text>
<rect x="815.0" y="400.7" width="16" height="137.3" fill="#356bb0"><title>64x32 C++ generic text: 42,908 bytes; ELF dec: 128,004; model state: 38,840</title></rect>
<rect x="815.0" y="400.3" width="16" height="0.5" fill="#e0a22e"><title>64x32 C++ generic data: 112 bytes; ELF dec: 128,004; model state: 38,840</title></rect>
<rect x="815.0" y="128.3" width="16" height="272.0" fill="#4f9f68"><title>64x32 C++ generic bss: 84,984 bytes; ELF dec: 128,004; model state: 38,840</title></rect>
<rect class="baroutline" x="815.0" y="128.3" width="16" height="409.7"/>
<text class="tick" x="823.0" y="558" text-anchor="end" transform="rotate(-45 823.0 558)">Generic</text>
<rect x="836.0" y="387.1" width="16" height="150.9" fill="#356bb0"><title>64x32 RLTools generic text: 47,132 bytes; ELF dec: 132,644; model state: 38,684</title></rect>
<rect x="836.0" y="386.8" width="16" height="0.5" fill="#e0a22e"><title>64x32 RLTools generic data: 92 bytes; ELF dec: 132,644; model state: 38,684</title></rect>
<rect x="836.0" y="113.4" width="16" height="273.4" fill="#4f9f68"><title>64x32 RLTools generic bss: 85,420 bytes; ELF dec: 132,644; model state: 38,684</title></rect>
<rect class="baroutline" x="836.0" y="113.4" width="16" height="424.6"/>
<text class="tick" x="844.0" y="558" text-anchor="end" transform="rotate(-45 844.0 558)">RLTools</text>
<text class="label" transform="translate(24 302.0) rotate(-90)" text-anchor="middle">ELF size components</text>
<text class="legend" x="896" y="58">ELF components</text>
<rect x="896" y="62" width="16" height="16" fill="#356bb0"/>
<text class="legend" x="920" y="75">text</text>
<rect x="896" y="84" width="16" height="16" fill="#e0a22e"/>
<text class="legend" x="920" y="97">data</text>
<rect x="896" y="106" width="16" height="16" fill="#4f9f68"/>
<text class="legend" x="920" y="119">bss</text>
<text class="legend" x="896" y="150">Variant order</text>
<text class="legend" x="896" y="166">C: C M55</text>
<text class="legend" x="896" y="185">Direct: C++ direct C backend</text>
<text class="legend" x="896" y="204">M55: C++ M55</text>
<text class="legend" x="896" y="223">Generic: C++ generic</text>
<text class="legend" x="896" y="242">RLTools: RLTools generic</text>
</svg>
