<svg xmlns="http://www.w3.org/2000/svg" width="875" height="650" viewBox="0 0 875 650">
<rect width="100%" height="100%" fill="#ffffff"/>
<style>text{font-family:Arial,Helvetica,sans-serif;fill:#202020}.axis{stroke:#222;stroke-width:1.2}.grid{stroke:#dedede;stroke-width:1}.title{font-size:20px;font-weight:700}.subtitle{font-size:12px;fill:#555}.label{font-size:13px}.tick{font-size:11px}.legend{font-size:12px}.baroutline{fill:none;stroke:#222;stroke-width:.5;opacity:.45}</style>
<text class="title" x="82" y="34">STM32N6 firmware ELF component breakdown</text>
<text class="subtitle" x="82" y="52">One ELF per variant and topology; stacked bars show arm-none-eabi-size text/data/bss.</text>
<line class="axis" x1="82" y1="538" x2="600" y2="538"/>
<line class="axis" x1="82" y1="66" x2="82" y2="538"/>
<line class="grid" x1="82" y1="538.0" x2="600" y2="538.0"/>
<text class="tick" x="72" y="542.0" text-anchor="end">0 KiB</text>
<line class="grid" x1="82" y1="443.6" x2="600" y2="443.6"/>
<text class="tick" x="72" y="447.6" text-anchor="end">93 KiB</text>
<line class="grid" x1="82" y1="349.2" x2="600" y2="349.2"/>
<text class="tick" x="72" y="353.2" text-anchor="end">186 KiB</text>
<line class="grid" x1="82" y1="254.8" x2="600" y2="254.8"/>
<text class="tick" x="72" y="258.8" text-anchor="end">278 KiB</text>
<line class="grid" x1="82" y1="160.4" x2="600" y2="160.4"/>
<text class="tick" x="72" y="164.4" text-anchor="end">371 KiB</text>
<line class="grid" x1="82" y1="66.0" x2="600" y2="66.0"/>
<text class="tick" x="72" y="70.0" text-anchor="end">464 KiB</text>
<text class="label" x="111.0" y="610" text-anchor="middle">8x8</text>
<rect x="82.0" y="496.1" width="16" height="41.9" fill="#356bb0"><title>8x8 C++ M55 text: 42,200 bytes; ELF dec: 72,488; model state: 2,080</title></rect>
<rect x="82.0" y="496.0" width="16" height="0.5" fill="#e0a22e"><title>8x8 C++ M55 data: 112 bytes; ELF dec: 72,488; model state: 2,080</title></rect>
<rect x="82.0" y="466.0" width="16" height="30.0" fill="#4f9f68"><title>8x8 C++ M55 bss: 30,176 bytes; ELF dec: 72,488; model state: 2,080</title></rect>
<rect class="baroutline" x="82.0" y="466.0" width="16" height="72.0"/>
<text class="tick" x="90.0" y="558" text-anchor="end" transform="rotate(-45 90.0 558)">M55</text>
<rect x="103.0" y="493.5" width="16" height="44.5" fill="#356bb0"><title>8x8 C++ generic text: 44,824 bytes; ELF dec: 75,008; model state: 1,976</title></rect>
<rect x="103.0" y="493.4" width="16" height="0.5" fill="#e0a22e"><title>8x8 C++ generic data: 112 bytes; ELF dec: 75,008; model state: 1,976</title></rect>
<rect x="103.0" y="463.5" width="16" height="29.9" fill="#4f9f68"><title>8x8 C++ generic bss: 30,072 bytes; ELF dec: 75,008; model state: 1,976</title></rect>
<rect class="baroutline" x="103.0" y="463.5" width="16" height="74.5"/>
<text class="tick" x="111.0" y="558" text-anchor="end" transform="rotate(-45 111.0 558)">Generic</text>
<rect x="124.0" y="490.9" width="16" height="47.1" fill="#356bb0"><title>8x8 RLTools batch text: 47,392 bytes; ELF dec: 133,768; model state: 58,192</title></rect>
<rect x="124.0" y="490.8" width="16" height="0.5" fill="#e0a22e"><title>8x8 RLTools batch data: 92 bytes; ELF dec: 133,768; model state: 58,192</title></rect>
<rect x="124.0" y="405.1" width="16" height="85.7" fill="#4f9f68"><title>8x8 RLTools batch bss: 86,284 bytes; ELF dec: 133,768; model state: 58,192</title></rect>
<rect class="baroutline" x="124.0" y="405.1" width="16" height="132.9"/>
<text class="tick" x="132.0" y="558" text-anchor="end" transform="rotate(-45 132.0 558)">RLTools</text>
<text class="label" x="203.0" y="610" text-anchor="middle">16x8</text>
<rect x="174.0" y="496.3" width="16" height="41.7" fill="#356bb0"><title>16x8 C++ M55 text: 42,000 bytes; ELF dec: 74,656; model state: 3,680</title></rect>
<rect x="174.0" y="496.2" width="16" height="0.5" fill="#e0a22e"><title>16x8 C++ M55 data: 112 bytes; ELF dec: 74,656; model state: 3,680</title></rect>
<rect x="174.0" y="463.8" width="16" height="32.3" fill="#4f9f68"><title>16x8 C++ M55 bss: 32,544 bytes; ELF dec: 74,656; model state: 3,680</title></rect>
<rect class="baroutline" x="174.0" y="463.8" width="16" height="74.2"/>
<text class="tick" x="182.0" y="558" text-anchor="end" transform="rotate(-45 182.0 558)">M55</text>
<rect x="195.0" y="494.7" width="16" height="43.3" fill="#356bb0"><title>16x8 C++ generic text: 43,584 bytes; ELF dec: 76,136; model state: 3,576</title></rect>
<rect x="195.0" y="494.6" width="16" height="0.5" fill="#e0a22e"><title>16x8 C++ generic data: 112 bytes; ELF dec: 76,136; model state: 3,576</title></rect>
<rect x="195.0" y="462.4" width="16" height="32.2" fill="#4f9f68"><title>16x8 C++ generic bss: 32,440 bytes; ELF dec: 76,136; model state: 3,576</title></rect>
<rect class="baroutline" x="195.0" y="462.4" width="16" height="75.6"/>
<text class="tick" x="203.0" y="558" text-anchor="end" transform="rotate(-45 203.0 558)">Generic</text>
<rect x="216.0" y="490.1" width="16" height="47.9" fill="#356bb0"><title>16x8 RLTools batch text: 48,200 bytes; ELF dec: 169,648; model state: 92,496</title></rect>
<rect x="216.0" y="490.0" width="16" height="0.5" fill="#e0a22e"><title>16x8 RLTools batch data: 92 bytes; ELF dec: 169,648; model state: 92,496</title></rect>
<rect x="216.0" y="369.5" width="16" height="120.6" fill="#4f9f68"><title>16x8 RLTools batch bss: 121,356 bytes; ELF dec: 169,648; model state: 92,496</title></rect>
<rect class="baroutline" x="216.0" y="369.5" width="16" height="168.5"/>
<text class="tick" x="224.0" y="558" text-anchor="end" transform="rotate(-45 224.0 558)">RLTools</text>
<text class="label" x="295.0" y="610" text-anchor="middle">16x16</text>
<rect x="266.0" y="496.6" width="16" height="41.4" fill="#356bb0"><title>16x16 C++ M55 text: 41,680 bytes; ELF dec: 77,856; model state: 6,048</title></rect>
<rect x="266.0" y="496.5" width="16" height="0.5" fill="#e0a22e"><title>16x16 C++ M55 data: 112 bytes; ELF dec: 77,856; model state: 6,048</title></rect>
<rect x="266.0" y="460.7" width="16" height="35.8" fill="#4f9f68"><title>16x16 C++ M55 bss: 36,064 bytes; ELF dec: 77,856; model state: 6,048</title></rect>
<rect class="baroutline" x="266.0" y="460.7" width="16" height="77.3"/>
<text class="tick" x="274.0" y="558" text-anchor="end" transform="rotate(-45 274.0 558)">M55</text>
<rect x="287.0" y="492.6" width="16" height="45.4" fill="#356bb0"><title>16x16 C++ generic text: 45,656 bytes; ELF dec: 81,728; model state: 5,944</title></rect>
<rect x="287.0" y="492.5" width="16" height="0.5" fill="#e0a22e"><title>16x16 C++ generic data: 112 bytes; ELF dec: 81,728; model state: 5,944</title></rect>
<rect x="287.0" y="456.8" width="16" height="35.7" fill="#4f9f68"><title>16x16 C++ generic bss: 35,960 bytes; ELF dec: 81,728; model state: 5,944</title></rect>
<rect class="baroutline" x="287.0" y="456.8" width="16" height="81.2"/>
<text class="tick" x="295.0" y="558" text-anchor="end" transform="rotate(-45 295.0 558)">Generic</text>
<rect x="308.0" y="488.3" width="16" height="49.7" fill="#356bb0"><title>16x16 RLTools batch text: 49,984 bytes; ELF dec: 191,272; model state: 111,184</title></rect>
<rect x="308.0" y="488.3" width="16" height="0.5" fill="#e0a22e"><title>16x16 RLTools batch data: 92 bytes; ELF dec: 191,272; model state: 111,184</title></rect>
<rect x="308.0" y="348.0" width="16" height="140.3" fill="#4f9f68"><title>16x16 RLTools batch bss: 141,196 bytes; ELF dec: 191,272; model state: 111,184</title></rect>
<rect class="baroutline" x="308.0" y="348.0" width="16" height="190.0"/>
<text class="tick" x="316.0" y="558" text-anchor="end" transform="rotate(-45 316.0 558)">RLTools</text>
<text class="label" x="387.0" y="610" text-anchor="middle">32x16</text>
<rect x="358.0" y="496.9" width="16" height="41.1" fill="#356bb0"><title>32x16 C++ M55 text: 41,376 bytes; ELF dec: 85,360; model state: 11,296</title></rect>
<rect x="358.0" y="496.8" width="16" height="0.5" fill="#e0a22e"><title>32x16 C++ M55 data: 112 bytes; ELF dec: 85,360; model state: 11,296</title></rect>
<rect x="358.0" y="453.2" width="16" height="43.6" fill="#4f9f68"><title>32x16 C++ M55 bss: 43,872 bytes; ELF dec: 85,360; model state: 11,296</title></rect>
<rect class="baroutline" x="358.0" y="453.2" width="16" height="84.8"/>
<text class="tick" x="366.0" y="558" text-anchor="end" transform="rotate(-45 366.0 558)">M55</text>
<rect x="379.0" y="492.1" width="16" height="45.9" fill="#356bb0"><title>32x16 C++ generic text: 46,176 bytes; ELF dec: 90,056; model state: 11,192</title></rect>
<rect x="379.0" y="492.0" width="16" height="0.5" fill="#e0a22e"><title>32x16 C++ generic data: 112 bytes; ELF dec: 90,056; model state: 11,192</title></rect>
<rect x="379.0" y="448.5" width="16" height="43.5" fill="#4f9f68"><title>32x16 C++ generic bss: 43,768 bytes; ELF dec: 90,056; model state: 11,192</title></rect>
<rect class="baroutline" x="379.0" y="448.5" width="16" height="89.5"/>
<text class="tick" x="387.0" y="558" text-anchor="end" transform="rotate(-45 387.0 558)">Generic</text>
<rect x="400.0" y="491.1" width="16" height="46.9" fill="#356bb0"><title>32x16 RLTools batch text: 47,196 bytes; ELF dec: 261,700; model state: 181,840</title></rect>
<rect x="400.0" y="491.0" width="16" height="0.5" fill="#e0a22e"><title>32x16 RLTools batch data: 92 bytes; ELF dec: 261,700; model state: 181,840</title></rect>
<rect x="400.0" y="278.0" width="16" height="213.0" fill="#4f9f68"><title>32x16 RLTools batch bss: 214,412 bytes; ELF dec: 261,700; model state: 181,840</title></rect>
<rect class="baroutline" x="400.0" y="278.0" width="16" height="260.0"/>
<text class="tick" x="408.0" y="558" text-anchor="end" transform="rotate(-45 408.0 558)">RLTools</text>
<text class="label" x="479.0" y="610" text-anchor="middle">32x32</text>
<rect x="450.0" y="496.6" width="16" height="41.4" fill="#356bb0"><title>32x32 C++ M55 text: 41,656 bytes; ELF dec: 98,824; model state: 20,128</title></rect>
<rect x="450.0" y="496.5" width="16" height="0.5" fill="#e0a22e"><title>32x32 C++ M55 data: 112 bytes; ELF dec: 98,824; model state: 20,128</title></rect>
<rect x="450.0" y="439.8" width="16" height="56.7" fill="#4f9f68"><title>32x32 C++ M55 bss: 57,056 bytes; ELF dec: 98,824; model state: 20,128</title></rect>
<rect class="baroutline" x="450.0" y="439.8" width="16" height="98.2"/>
<text class="tick" x="458.0" y="558" text-anchor="end" transform="rotate(-45 458.0 558)">M55</text>
<rect x="471.0" y="492.4" width="16" height="45.6" fill="#356bb0"><title>32x32 C++ generic text: 45,904 bytes; ELF dec: 102,968; model state: 20,024</title></rect>
<rect x="471.0" y="492.3" width="16" height="0.5" fill="#e0a22e"><title>32x32 C++ generic data: 112 bytes; ELF dec: 102,968; model state: 20,024</title></rect>
<rect x="471.0" y="435.7" width="16" height="56.6" fill="#4f9f68"><title>32x32 C++ generic bss: 56,952 bytes; ELF dec: 102,968; model state: 20,024</title></rect>
<rect class="baroutline" x="471.0" y="435.7" width="16" height="102.3"/>
<text class="tick" x="479.0" y="558" text-anchor="end" transform="rotate(-45 479.0 558)">Generic</text>
<rect x="492.0" y="492.7" width="16" height="45.3" fill="#356bb0"><title>32x32 RLTools batch text: 45,628 bytes; ELF dec: 305,956; model state: 223,312</title></rect>
<rect x="492.0" y="492.6" width="16" height="0.5" fill="#e0a22e"><title>32x32 RLTools batch data: 92 bytes; ELF dec: 305,956; model state: 223,312</title></rect>
<rect x="492.0" y="234.1" width="16" height="258.5" fill="#4f9f68"><title>32x32 RLTools batch bss: 260,236 bytes; ELF dec: 305,956; model state: 223,312</title></rect>
<rect class="baroutline" x="492.0" y="234.1" width="16" height="303.9"/>
<text class="tick" x="500.0" y="558" text-anchor="end" transform="rotate(-45 500.0 558)">RLTools</text>
<text class="label" x="571.0" y="610" text-anchor="middle">64x32</text>
<rect x="542.0" y="495.6" width="16" height="42.4" fill="#356bb0"><title>64x32 C++ M55 text: 42,720 bytes; ELF dec: 127,792; model state: 38,816</title></rect>
<rect x="542.0" y="495.5" width="16" height="0.5" fill="#e0a22e"><title>64x32 C++ M55 data: 112 bytes; ELF dec: 127,792; model state: 38,816</title></rect>
<rect x="542.0" y="411.1" width="16" height="84.4" fill="#4f9f68"><title>64x32 C++ M55 bss: 84,960 bytes; ELF dec: 127,792; model state: 38,816</title></rect>
<rect class="baroutline" x="542.0" y="411.1" width="16" height="126.9"/>
<text class="tick" x="550.0" y="558" text-anchor="end" transform="rotate(-45 550.0 558)">M55</text>
<rect x="563.0" y="490.4" width="16" height="47.6" fill="#356bb0"><title>64x32 C++ generic text: 47,872 bytes; ELF dec: 132,840; model state: 38,712</title></rect>
<rect x="563.0" y="490.3" width="16" height="0.5" fill="#e0a22e"><title>64x32 C++ generic data: 112 bytes; ELF dec: 132,840; model state: 38,712</title></rect>
<rect x="563.0" y="406.0" width="16" height="84.3" fill="#4f9f68"><title>64x32 C++ generic bss: 84,856 bytes; ELF dec: 132,840; model state: 38,712</title></rect>
<rect class="baroutline" x="563.0" y="406.0" width="16" height="132.0"/>
<text class="tick" x="571.0" y="558" text-anchor="end" transform="rotate(-45 571.0 558)">Generic</text>
<rect x="584.0" y="491.0" width="16" height="47.0" fill="#356bb0"><title>64x32 RLTools batch text: 47,308 bytes; ELF dec: 466,356; model state: 372,816</title></rect>
<rect x="584.0" y="490.9" width="16" height="0.5" fill="#e0a22e"><title>64x32 RLTools batch data: 92 bytes; ELF dec: 466,356; model state: 372,816</title></rect>
<rect x="584.0" y="74.7" width="16" height="416.2" fill="#4f9f68"><title>64x32 RLTools batch bss: 418,956 bytes; ELF dec: 466,356; model state: 372,816</title></rect>
<rect class="baroutline" x="584.0" y="74.7" width="16" height="463.3"/>
<text class="tick" x="592.0" y="558" text-anchor="end" transform="rotate(-45 592.0 558)">RLTools</text>
<text class="label" transform="translate(24 302.0) rotate(-90)" text-anchor="middle">ELF size components</text>
<text class="legend" x="644" y="58">ELF components</text>
<rect x="644" y="62" width="16" height="16" fill="#356bb0"/>
<text class="legend" x="668" y="75">text</text>
<rect x="644" y="84" width="16" height="16" fill="#e0a22e"/>
<text class="legend" x="668" y="97">data</text>
<rect x="644" y="106" width="16" height="16" fill="#4f9f68"/>
<text class="legend" x="668" y="119">bss</text>
<text class="legend" x="644" y="150">Variant order</text>
<text class="legend" x="644" y="166">M55: C++ M55</text>
<text class="legend" x="644" y="185">Generic: C++ generic</text>
<text class="legend" x="644" y="204">RLTools: RLTools batch</text>
</svg>
