<svg xmlns="http://www.w3.org/2000/svg" width="1100" height="620" viewBox="0 0 1100 620">
<rect width="100%" height="100%" fill="#ffffff"/>
<style>text{font-family:Arial,Helvetica,sans-serif;fill:#202020}.axis{stroke:#222;stroke-width:1.2}.grid{stroke:#dddddd;stroke-width:1}.label{font-size:13px}.title{font-size:20px;font-weight:700}.tick{font-size:11px}.legend{font-size:12px}</style>
<text class="title" x="82" y="34">Speedup over RLTools Generic baseline</text>
<line class="axis" x1="82" y1="534" x2="865" y2="534"/>
<line class="axis" x1="82" y1="62" x2="82" y2="534"/>
<line class="grid" x1="82" y1="534.0" x2="865" y2="534.0"/>
<text class="tick" x="72" y="538.0" text-anchor="end">0.00x</text>
<line class="grid" x1="82" y1="481.6" x2="865" y2="481.6"/>
<text class="tick" x="72" y="485.6" text-anchor="end">0.50x</text>
<line class="grid" x1="82" y1="429.1" x2="865" y2="429.1"/>
<text class="tick" x="72" y="433.1" text-anchor="end">1.00x</text>
<line class="grid" x1="82" y1="376.7" x2="865" y2="376.7"/>
<text class="tick" x="72" y="380.7" text-anchor="end">1.50x</text>
<line class="grid" x1="82" y1="324.2" x2="865" y2="324.2"/>
<text class="tick" x="72" y="328.2" text-anchor="end">2.00x</text>
<line class="grid" x1="82" y1="271.8" x2="865" y2="271.8"/>
<text class="tick" x="72" y="275.8" text-anchor="end">2.50x</text>
<line class="grid" x1="82" y1="219.3" x2="865" y2="219.3"/>
<text class="tick" x="72" y="223.3" text-anchor="end">3.00x</text>
<line class="grid" x1="82" y1="166.9" x2="865" y2="166.9"/>
<text class="tick" x="72" y="170.9" text-anchor="end">3.50x</text>
<line class="grid" x1="82" y1="114.4" x2="865" y2="114.4"/>
<text class="tick" x="72" y="118.4" text-anchor="end">4.00x</text>
<line class="grid" x1="82" y1="62.0" x2="865" y2="62.0"/>
<text class="tick" x="72" y="66.0" text-anchor="end">4.50x</text>
<line x1="82" y1="429.1" x2="865" y2="429.1" stroke="#888888" stroke-width="1.4" stroke-dasharray="4 4"/>
<line class="grid" x1="82.0" y1="62" x2="82.0" y2="534"/>
<text class="tick" x="82.0" y="554" text-anchor="middle">8x8</text>
<text class="tick" x="82.0" y="570" text-anchor="middle">113</text>
<line class="grid" x1="115.3" y1="62" x2="115.3" y2="534"/>
<text class="tick" x="115.3" y="554" text-anchor="middle">16x8</text>
<text class="tick" x="115.3" y="570" text-anchor="middle">209</text>
<line class="grid" x1="165.3" y1="62" x2="165.3" y2="534"/>
<text class="tick" x="165.3" y="554" text-anchor="middle">16x16</text>
<text class="tick" x="165.3" y="570" text-anchor="middle">353</text>
<line class="grid" x1="276.4" y1="62" x2="276.4" y2="534"/>
<text class="tick" x="276.4" y="554" text-anchor="middle">32x16</text>
<text class="tick" x="276.4" y="570" text-anchor="middle">673</text>
<line class="grid" x1="465.2" y1="62" x2="465.2" y2="534"/>
<text class="tick" x="465.2" y="554" text-anchor="middle">32x32</text>
<text class="tick" x="465.2" y="570" text-anchor="middle">1217</text>
<line class="grid" x1="865.0" y1="62" x2="865.0" y2="534"/>
<text class="tick" x="865.0" y="554" text-anchor="middle">64x32</text>
<text class="tick" x="865.0" y="570" text-anchor="middle">2369</text>
<polyline points="82.0,373.5 115.3,376.6 165.3,330.8 276.4,226.4 465.2,189.2 865.0,122.2" fill="none" stroke="#1f62b2" stroke-width="2.4"/>
<circle cx="82.0" cy="373.5" r="3.2" fill="#1f62b2"/>
<circle cx="115.3" cy="376.6" r="3.2" fill="#1f62b2"/>
<circle cx="165.3" cy="330.8" r="3.2" fill="#1f62b2"/>
<circle cx="276.4" cy="226.4" r="3.2" fill="#1f62b2"/>
<circle cx="465.2" cy="189.2" r="3.2" fill="#1f62b2"/>
<circle cx="865.0" cy="122.2" r="3.2" fill="#1f62b2"/>
<polyline points="82.0,366.7 115.3,379.3 165.3,358.8 276.4,271.9 465.2,267.1 865.0,252.9" fill="none" stroke="#b24a1f" stroke-width="2.4"/>
<circle cx="82.0" cy="366.7" r="3.2" fill="#b24a1f"/>
<circle cx="115.3" cy="379.3" r="3.2" fill="#b24a1f"/>
<circle cx="165.3" cy="358.8" r="3.2" fill="#b24a1f"/>
<circle cx="276.4" cy="271.9" r="3.2" fill="#b24a1f"/>
<circle cx="465.2" cy="267.1" r="3.2" fill="#b24a1f"/>
<circle cx="865.0" cy="252.9" r="3.2" fill="#b24a1f"/>
<polyline points="82.0,429.1 115.3,429.1 165.3,429.1 276.4,429.1 465.2,429.1 865.0,429.1" fill="none" stroke="#7a3db8" stroke-width="2.4"/>
<circle cx="82.0" cy="429.1" r="3.2" fill="#7a3db8"/>
<circle cx="115.3" cy="429.1" r="3.2" fill="#7a3db8"/>
<circle cx="165.3" cy="429.1" r="3.2" fill="#7a3db8"/>
<circle cx="276.4" cy="429.1" r="3.2" fill="#7a3db8"/>
<circle cx="465.2" cy="429.1" r="3.2" fill="#7a3db8"/>
<circle cx="865.0" cy="429.1" r="3.2" fill="#7a3db8"/>
<text class="label" x="473.5" y="602" text-anchor="middle">Network config and parameter count</text>
<text class="label" transform="translate(22 298.0) rotate(-90)" text-anchor="middle">baseline cycles / variant cycles</text>
<line x1="899" y1="70" x2="923" y2="70" stroke="#1f62b2" stroke-width="2.4"/>
<text class="legend" x="931" y="74">C++ M55</text>
<line x1="899" y1="90" x2="923" y2="90" stroke="#b24a1f" stroke-width="2.4"/>
<text class="legend" x="931" y="94">C++ Generic</text>
<line x1="899" y1="110" x2="923" y2="110" stroke="#7a3db8" stroke-width="2.4"/>
<text class="legend" x="931" y="114">RLTools Generic</text>
</svg>
