<svg xmlns="http://www.w3.org/2000/svg" width="1100" height="620" viewBox="0 0 1100 620">
<rect width="100%" height="100%" fill="#ffffff"/>
<style>text{font-family:Arial,Helvetica,sans-serif;fill:#202020}.axis{stroke:#222;stroke-width:1.2}.grid{stroke:#dddddd;stroke-width:1}.label{font-size:13px}.title{font-size:20px;font-weight:700}.tick{font-size:11px}.legend{font-size:12px}</style>
<text class="title" x="82" y="34">Convergence trace, config 32x32</text>
<line class="axis" x1="92" y1="544" x2="865" y2="544"/>
<line class="axis" x1="92" y1="62" x2="92" y2="544"/>
<line class="grid" x1="92.0" y1="62" x2="92.0" y2="544"/>
<text class="tick" x="92.0" y="566" text-anchor="middle">256</text>
<line class="grid" x1="202.4" y1="62" x2="202.4" y2="544"/>
<text class="tick" x="202.4" y="566" text-anchor="middle">512</text>
<line class="grid" x1="312.9" y1="62" x2="312.9" y2="544"/>
<text class="tick" x="312.9" y="566" text-anchor="middle">768</text>
<line class="grid" x1="423.3" y1="62" x2="423.3" y2="544"/>
<text class="tick" x="423.3" y="566" text-anchor="middle">1024</text>
<line class="grid" x1="533.7" y1="62" x2="533.7" y2="544"/>
<text class="tick" x="533.7" y="566" text-anchor="middle">1280</text>
<line class="grid" x1="644.1" y1="62" x2="644.1" y2="544"/>
<text class="tick" x="644.1" y="566" text-anchor="middle">1536</text>
<line class="grid" x1="754.6" y1="62" x2="754.6" y2="544"/>
<text class="tick" x="754.6" y="566" text-anchor="middle">1792</text>
<line class="grid" x1="865.0" y1="62" x2="865.0" y2="544"/>
<text class="tick" x="865.0" y="566" text-anchor="middle">2048</text>
<polyline points="92.0,180.0 202.4,184.6 312.9,209.3 423.3,275.3 533.7,297.7 644.1,301.2 754.6,327.7 865.0,399.6" fill="none" stroke="#1f62b2" stroke-width="2.4"/>
<circle cx="92.0" cy="180.0" r="3.2" fill="#1f62b2"/>
<circle cx="202.4" cy="184.6" r="3.2" fill="#1f62b2"/>
<circle cx="312.9" cy="209.3" r="3.2" fill="#1f62b2"/>
<circle cx="423.3" cy="275.3" r="3.2" fill="#1f62b2"/>
<circle cx="533.7" cy="297.7" r="3.2" fill="#1f62b2"/>
<circle cx="644.1" cy="301.2" r="3.2" fill="#1f62b2"/>
<circle cx="754.6" cy="327.7" r="3.2" fill="#1f62b2"/>
<circle cx="865.0" cy="399.6" r="3.2" fill="#1f62b2"/>
<polyline points="92.0,180.0 202.4,184.6 312.9,209.3 423.3,275.3 533.7,297.7 644.1,301.2 754.6,327.7 865.0,399.6" fill="none" stroke="#b24a1f" stroke-width="2.4"/>
<circle cx="92.0" cy="180.0" r="3.2" fill="#b24a1f"/>
<circle cx="202.4" cy="184.6" r="3.2" fill="#b24a1f"/>
<circle cx="312.9" cy="209.3" r="3.2" fill="#b24a1f"/>
<circle cx="423.3" cy="275.3" r="3.2" fill="#b24a1f"/>
<circle cx="533.7" cy="297.7" r="3.2" fill="#b24a1f"/>
<circle cx="644.1" cy="301.2" r="3.2" fill="#b24a1f"/>
<circle cx="754.6" cy="327.7" r="3.2" fill="#b24a1f"/>
<circle cx="865.0" cy="399.6" r="3.2" fill="#b24a1f"/>
<polyline points="92.0,180.0 202.4,184.6 312.9,209.3 423.3,275.3 533.7,297.7 644.1,301.2 754.6,327.7 865.0,399.6" fill="none" stroke="#7a3db8" stroke-width="2.4"/>
<circle cx="92.0" cy="180.0" r="3.2" fill="#7a3db8"/>
<circle cx="202.4" cy="184.6" r="3.2" fill="#7a3db8"/>
<circle cx="312.9" cy="209.3" r="3.2" fill="#7a3db8"/>
<circle cx="423.3" cy="275.3" r="3.2" fill="#7a3db8"/>
<circle cx="533.7" cy="297.7" r="3.2" fill="#7a3db8"/>
<circle cx="644.1" cy="301.2" r="3.2" fill="#7a3db8"/>
<circle cx="754.6" cy="327.7" r="3.2" fill="#7a3db8"/>
<circle cx="865.0" cy="399.6" r="3.2" fill="#7a3db8"/>
<text class="label" x="478.5" y="602" text-anchor="middle">Cumulative sample-passes</text>
<text class="label" transform="translate(24 303.0) rotate(-90)" text-anchor="middle">minibatch MSE, log scale</text>
<line x1="899" y1="70" x2="923" y2="70" stroke="#2f2f2f" stroke-width="2.4"/>
<text class="legend" x="931" y="74">C M55</text>
<line x1="899" y1="90" x2="923" y2="90" stroke="#177245" stroke-width="2.4"/>
<text class="legend" x="931" y="94">C++ direct C backend</text>
<line x1="899" y1="110" x2="923" y2="110" stroke="#1f62b2" stroke-width="2.4"/>
<text class="legend" x="931" y="114">C++ M55</text>
<line x1="899" y1="130" x2="923" y2="130" stroke="#b24a1f" stroke-width="2.4"/>
<text class="legend" x="931" y="134">C++ generic</text>
<line x1="899" y1="150" x2="923" y2="150" stroke="#7a3db8" stroke-width="2.4"/>
<text class="legend" x="931" y="154">RLTools batch</text>
</svg>
