<svg xmlns="http://www.w3.org/2000/svg" width="1127" height="650" viewBox="0 0 1127 650">
<rect width="100%" height="100%" fill="#ffffff"/>
<style>text{font-family:Arial,Helvetica,sans-serif;fill:#202020}.axis{stroke:#222;stroke-width:1.2}.grid{stroke:#dedede;stroke-width:1}.title{font-size:20px;font-weight:700}.subtitle{font-size:12px;fill:#555}.label{font-size:13px}.tick{font-size:11px}.legend{font-size:12px}.baroutline{fill:none;stroke:#222;stroke-width:.5;opacity:.45}</style>
<text class="title" x="82" y="34">STM32N6 firmware ELF component breakdown</text>
<text class="subtitle" x="82" y="52">One ELF per variant and topology; stacked bars show arm-none-eabi-size text/data/bss.</text>
<line class="axis" x1="82" y1="538" x2="852" y2="538"/>
<line class="axis" x1="82" y1="66" x2="82" y2="538"/>
<line class="grid" x1="82" y1="538.0" x2="852" y2="538.0"/>
<text class="tick" x="72" y="542.0" text-anchor="end">0 KiB</text>
<line class="grid" x1="82" y1="443.6" x2="852" y2="443.6"/>
<text class="tick" x="72" y="447.6" text-anchor="end">86 KiB</text>
<line class="grid" x1="82" y1="349.2" x2="852" y2="349.2"/>
<text class="tick" x="72" y="353.2" text-anchor="end">173 KiB</text>
<line class="grid" x1="82" y1="254.8" x2="852" y2="254.8"/>
<text class="tick" x="72" y="258.8" text-anchor="end">259 KiB</text>
<line class="grid" x1="82" y1="160.4" x2="852" y2="160.4"/>
<text class="tick" x="72" y="164.4" text-anchor="end">346 KiB</text>
<line class="grid" x1="82" y1="66.0" x2="852" y2="66.0"/>
<text class="tick" x="72" y="70.0" text-anchor="end">432 KiB</text>
<text class="label" x="132.0" y="610" text-anchor="middle">8x8</text>
<rect x="82.0" y="484.8" width="16" height="53.2" fill="#356bb0"><title>8x8 C M55 text: 49,836 bytes; ELF dec: 81,332; model state: 3,296</title></rect>
<rect x="82.0" y="484.7" width="16" height="0.5" fill="#e0a22e"><title>8x8 C M55 data: 92 bytes; ELF dec: 81,332; model state: 3,296</title></rect>
<rect x="82.0" y="451.2" width="16" height="33.5" fill="#4f9f68"><title>8x8 C M55 bss: 31,404 bytes; ELF dec: 81,332; model state: 3,296</title></rect>
<rect class="baroutline" x="82.0" y="451.2" width="16" height="86.8"/>
<text class="tick" x="90.0" y="558" text-anchor="end" transform="rotate(-45 90.0 558)">C</text>
<rect x="103.0" y="486.4" width="16" height="51.6" fill="#356bb0"><title>8x8 C++ direct C backend text: 48,364 bytes; ELF dec: 78,668; model state: 2,080</title></rect>
<rect x="103.0" y="486.3" width="16" height="0.5" fill="#e0a22e"><title>8x8 C++ direct C backend data: 92 bytes; ELF dec: 78,668; model state: 2,080</title></rect>
<rect x="103.0" y="454.1" width="16" height="32.2" fill="#4f9f68"><title>8x8 C++ direct C backend bss: 30,212 bytes; ELF dec: 78,668; model state: 2,080</title></rect>
<rect class="baroutline" x="103.0" y="454.1" width="16" height="83.9"/>
<text class="tick" x="111.0" y="558" text-anchor="end" transform="rotate(-45 111.0 558)">Direct</text>
<rect x="124.0" y="492.9" width="16" height="45.1" fill="#356bb0"><title>8x8 C++ M55 text: 42,296 bytes; ELF dec: 72,584; model state: 2,080</title></rect>
<rect x="124.0" y="492.8" width="16" height="0.5" fill="#e0a22e"><title>8x8 C++ M55 data: 112 bytes; ELF dec: 72,584; model state: 2,080</title></rect>
<rect x="124.0" y="460.6" width="16" height="32.2" fill="#4f9f68"><title>8x8 C++ M55 bss: 30,176 bytes; ELF dec: 72,584; model state: 2,080</title></rect>
<rect class="baroutline" x="124.0" y="460.6" width="16" height="77.4"/>
<text class="tick" x="132.0" y="558" text-anchor="end" transform="rotate(-45 132.0 558)">M55</text>
<rect x="145.0" y="490.1" width="16" height="47.9" fill="#356bb0"><title>8x8 C++ Generic text: 44,904 bytes; ELF dec: 75,088; model state: 1,976</title></rect>
<rect x="145.0" y="490.0" width="16" height="0.5" fill="#e0a22e"><title>8x8 C++ Generic data: 112 bytes; ELF dec: 75,088; model state: 1,976</title></rect>
<rect x="145.0" y="457.9" width="16" height="32.1" fill="#4f9f68"><title>8x8 C++ Generic bss: 30,072 bytes; ELF dec: 75,088; model state: 1,976</title></rect>
<rect class="baroutline" x="145.0" y="457.9" width="16" height="80.1"/>
<text class="tick" x="153.0" y="558" text-anchor="end" transform="rotate(-45 153.0 558)">Generic</text>
<rect x="166.0" y="487.0" width="16" height="51.0" fill="#356bb0"><title>8x8 RLTools Generic text: 47,776 bytes; ELF dec: 137,248; model state: 61,284</title></rect>
<rect x="166.0" y="486.9" width="16" height="0.5" fill="#e0a22e"><title>8x8 RLTools Generic data: 92 bytes; ELF dec: 137,248; model state: 61,284</title></rect>
<rect x="166.0" y="391.6" width="16" height="95.4" fill="#4f9f68"><title>8x8 RLTools Generic bss: 89,380 bytes; ELF dec: 137,248; model state: 61,284</title></rect>
<rect class="baroutline" x="166.0" y="391.6" width="16" height="146.4"/>
<text class="tick" x="174.0" y="558" text-anchor="end" transform="rotate(-45 174.0 558)">RLTools</text>
<text class="label" x="266.0" y="610" text-anchor="middle">16x8</text>
<rect x="216.0" y="484.8" width="16" height="53.2" fill="#356bb0"><title>16x8 C M55 text: 49,868 bytes; ELF dec: 83,764; model state: 4,928</title></rect>
<rect x="216.0" y="484.7" width="16" height="0.5" fill="#e0a22e"><title>16x8 C M55 data: 92 bytes; ELF dec: 83,764; model state: 4,928</title></rect>
<rect x="216.0" y="448.6" width="16" height="36.1" fill="#4f9f68"><title>16x8 C M55 bss: 33,804 bytes; ELF dec: 83,764; model state: 4,928</title></rect>
<rect class="baroutline" x="216.0" y="448.6" width="16" height="89.4"/>
<text class="tick" x="224.0" y="558" text-anchor="end" transform="rotate(-45 224.0 558)">C</text>
<rect x="237.0" y="486.3" width="16" height="51.7" fill="#356bb0"><title>16x8 C++ direct C backend text: 48,436 bytes; ELF dec: 81,108; model state: 3,680</title></rect>
<rect x="237.0" y="486.2" width="16" height="0.5" fill="#e0a22e"><title>16x8 C++ direct C backend data: 92 bytes; ELF dec: 81,108; model state: 3,680</title></rect>
<rect x="237.0" y="451.5" width="16" height="34.8" fill="#4f9f68"><title>16x8 C++ direct C backend bss: 32,580 bytes; ELF dec: 81,108; model state: 3,680</title></rect>
<rect class="baroutline" x="237.0" y="451.5" width="16" height="86.5"/>
<text class="tick" x="245.0" y="558" text-anchor="end" transform="rotate(-45 245.0 558)">Direct</text>
<rect x="258.0" y="493.1" width="16" height="44.9" fill="#356bb0"><title>16x8 C++ M55 text: 42,088 bytes; ELF dec: 74,744; model state: 3,680</title></rect>
<rect x="258.0" y="493.0" width="16" height="0.5" fill="#e0a22e"><title>16x8 C++ M55 data: 112 bytes; ELF dec: 74,744; model state: 3,680</title></rect>
<rect x="258.0" y="458.2" width="16" height="34.7" fill="#4f9f68"><title>16x8 C++ M55 bss: 32,544 bytes; ELF dec: 74,744; model state: 3,680</title></rect>
<rect class="baroutline" x="258.0" y="458.2" width="16" height="79.8"/>
<text class="tick" x="266.0" y="558" text-anchor="end" transform="rotate(-45 266.0 558)">M55</text>
<rect x="279.0" y="491.4" width="16" height="46.6" fill="#356bb0"><title>16x8 C++ Generic text: 43,696 bytes; ELF dec: 76,248; model state: 3,576</title></rect>
<rect x="279.0" y="491.3" width="16" height="0.5" fill="#e0a22e"><title>16x8 C++ Generic data: 112 bytes; ELF dec: 76,248; model state: 3,576</title></rect>
<rect x="279.0" y="456.6" width="16" height="34.6" fill="#4f9f68"><title>16x8 C++ Generic bss: 32,440 bytes; ELF dec: 76,248; model state: 3,576</title></rect>
<rect class="baroutline" x="279.0" y="456.6" width="16" height="81.4"/>
<text class="tick" x="287.0" y="558" text-anchor="end" transform="rotate(-45 287.0 558)">Generic</text>
<rect x="300.0" y="486.0" width="16" height="52.0" fill="#356bb0"><title>16x8 RLTools Generic text: 48,776 bytes; ELF dec: 165,128; model state: 87,396</title></rect>
<rect x="300.0" y="485.9" width="16" height="0.5" fill="#e0a22e"><title>16x8 RLTools Generic data: 92 bytes; ELF dec: 165,128; model state: 87,396</title></rect>
<rect x="300.0" y="361.8" width="16" height="124.0" fill="#4f9f68"><title>16x8 RLTools Generic bss: 116,260 bytes; ELF dec: 165,128; model state: 87,396</title></rect>
<rect class="baroutline" x="300.0" y="361.8" width="16" height="176.2"/>
<text class="tick" x="308.0" y="558" text-anchor="end" transform="rotate(-45 308.0 558)">RLTools</text>
<text class="label" x="400.0" y="610" text-anchor="middle">16x16</text>
<rect x="350.0" y="484.8" width="16" height="53.2" fill="#356bb0"><title>16x16 C M55 text: 49,860 bytes; ELF dec: 87,244; model state: 7,264</title></rect>
<rect x="350.0" y="484.7" width="16" height="0.5" fill="#e0a22e"><title>16x16 C M55 data: 92 bytes; ELF dec: 87,244; model state: 7,264</title></rect>
<rect x="350.0" y="444.9" width="16" height="39.8" fill="#4f9f68"><title>16x16 C M55 bss: 37,292 bytes; ELF dec: 87,244; model state: 7,264</title></rect>
<rect class="baroutline" x="350.0" y="444.9" width="16" height="93.1"/>
<text class="tick" x="358.0" y="558" text-anchor="end" transform="rotate(-45 358.0 558)">C</text>
<rect x="371.0" y="486.4" width="16" height="51.6" fill="#356bb0"><title>16x16 C++ direct C backend text: 48,396 bytes; ELF dec: 84,588; model state: 6,048</title></rect>
<rect x="371.0" y="486.3" width="16" height="0.5" fill="#e0a22e"><title>16x16 C++ direct C backend data: 92 bytes; ELF dec: 84,588; model state: 6,048</title></rect>
<rect x="371.0" y="447.7" width="16" height="38.5" fill="#4f9f68"><title>16x16 C++ direct C backend bss: 36,100 bytes; ELF dec: 84,588; model state: 6,048</title></rect>
<rect class="baroutline" x="371.0" y="447.7" width="16" height="90.3"/>
<text class="tick" x="379.0" y="558" text-anchor="end" transform="rotate(-45 379.0 558)">Direct</text>
<rect x="392.0" y="493.4" width="16" height="44.6" fill="#356bb0"><title>16x16 C++ M55 text: 41,776 bytes; ELF dec: 77,952; model state: 6,048</title></rect>
<rect x="392.0" y="493.3" width="16" height="0.5" fill="#e0a22e"><title>16x16 C++ M55 data: 112 bytes; ELF dec: 77,952; model state: 6,048</title></rect>
<rect x="392.0" y="454.8" width="16" height="38.5" fill="#4f9f68"><title>16x16 C++ M55 bss: 36,064 bytes; ELF dec: 77,952; model state: 6,048</title></rect>
<rect class="baroutline" x="392.0" y="454.8" width="16" height="83.2"/>
<text class="tick" x="400.0" y="558" text-anchor="end" transform="rotate(-45 400.0 558)">M55</text>
<rect x="413.0" y="489.2" width="16" height="48.8" fill="#356bb0"><title>16x16 C++ Generic text: 45,768 bytes; ELF dec: 81,840; model state: 5,944</title></rect>
<rect x="413.0" y="489.0" width="16" height="0.5" fill="#e0a22e"><title>16x16 C++ Generic data: 112 bytes; ELF dec: 81,840; model state: 5,944</title></rect>
<rect x="413.0" y="450.7" width="16" height="38.4" fill="#4f9f68"><title>16x16 C++ Generic bss: 35,960 bytes; ELF dec: 81,840; model state: 5,944</title></rect>
<rect class="baroutline" x="413.0" y="450.7" width="16" height="87.3"/>
<text class="tick" x="421.0" y="558" text-anchor="end" transform="rotate(-45 421.0 558)">Generic</text>
<rect x="434.0" y="484.7" width="16" height="53.3" fill="#356bb0"><title>16x16 RLTools Generic text: 50,000 bytes; ELF dec: 194,384; model state: 114,276</title></rect>
<rect x="434.0" y="484.6" width="16" height="0.5" fill="#e0a22e"><title>16x16 RLTools Generic data: 92 bytes; ELF dec: 194,384; model state: 114,276</title></rect>
<rect x="434.0" y="330.6" width="16" height="154.0" fill="#4f9f68"><title>16x16 RLTools Generic bss: 144,292 bytes; ELF dec: 194,384; model state: 114,276</title></rect>
<rect class="baroutline" x="434.0" y="330.6" width="16" height="207.4"/>
<text class="tick" x="442.0" y="558" text-anchor="end" transform="rotate(-45 442.0 558)">RLTools</text>
<text class="label" x="534.0" y="610" text-anchor="middle">32x16</text>
<rect x="484.0" y="484.8" width="16" height="53.2" fill="#356bb0"><title>32x16 C M55 text: 49,876 bytes; ELF dec: 95,132; model state: 12,576</title></rect>
<rect x="484.0" y="484.7" width="16" height="0.5" fill="#e0a22e"><title>32x16 C M55 data: 92 bytes; ELF dec: 95,132; model state: 12,576</title></rect>
<rect x="484.0" y="436.5" width="16" height="48.2" fill="#4f9f68"><title>32x16 C M55 bss: 45,164 bytes; ELF dec: 95,132; model state: 12,576</title></rect>
<rect class="baroutline" x="484.0" y="436.5" width="16" height="101.5"/>
<text class="tick" x="492.0" y="558" text-anchor="end" transform="rotate(-45 492.0 558)">C</text>
<rect x="505.0" y="486.3" width="16" height="51.7" fill="#356bb0"><title>32x16 C++ direct C backend text: 48,468 bytes; ELF dec: 92,468; model state: 11,296</title></rect>
<rect x="505.0" y="486.2" width="16" height="0.5" fill="#e0a22e"><title>32x16 C++ direct C backend data: 92 bytes; ELF dec: 92,468; model state: 11,296</title></rect>
<rect x="505.0" y="439.3" width="16" height="46.8" fill="#4f9f68"><title>32x16 C++ direct C backend bss: 43,908 bytes; ELF dec: 92,468; model state: 11,296</title></rect>
<rect class="baroutline" x="505.0" y="439.3" width="16" height="98.7"/>
<text class="tick" x="513.0" y="558" text-anchor="end" transform="rotate(-45 513.0 558)">Direct</text>
<rect x="526.0" y="493.8" width="16" height="44.2" fill="#356bb0"><title>32x16 C++ M55 text: 41,464 bytes; ELF dec: 85,448; model state: 11,296</title></rect>
<rect x="526.0" y="493.6" width="16" height="0.5" fill="#e0a22e"><title>32x16 C++ M55 data: 112 bytes; ELF dec: 85,448; model state: 11,296</title></rect>
<rect x="526.0" y="446.8" width="16" height="46.8" fill="#4f9f68"><title>32x16 C++ M55 bss: 43,872 bytes; ELF dec: 85,448; model state: 11,296</title></rect>
<rect class="baroutline" x="526.0" y="446.8" width="16" height="91.2"/>
<text class="tick" x="534.0" y="558" text-anchor="end" transform="rotate(-45 534.0 558)">M55</text>
<rect x="547.0" y="488.6" width="16" height="49.4" fill="#356bb0"><title>32x16 C++ Generic text: 46,304 bytes; ELF dec: 90,184; model state: 11,192</title></rect>
<rect x="547.0" y="488.5" width="16" height="0.5" fill="#e0a22e"><title>32x16 C++ Generic data: 112 bytes; ELF dec: 90,184; model state: 11,192</title></rect>
<rect x="547.0" y="441.8" width="16" height="46.7" fill="#4f9f68"><title>32x16 C++ Generic bss: 43,768 bytes; ELF dec: 90,184; model state: 11,192</title></rect>
<rect class="baroutline" x="547.0" y="441.8" width="16" height="96.2"/>
<text class="tick" x="555.0" y="558" text-anchor="end" transform="rotate(-45 555.0 558)">Generic</text>
<rect x="568.0" y="485.5" width="16" height="52.5" fill="#356bb0"><title>32x16 RLTools Generic text: 49,164 bytes; ELF dec: 250,380; model state: 168,548</title></rect>
<rect x="568.0" y="485.4" width="16" height="0.5" fill="#e0a22e"><title>32x16 RLTools Generic data: 92 bytes; ELF dec: 250,380; model state: 168,548</title></rect>
<rect x="568.0" y="270.8" width="16" height="214.6" fill="#4f9f68"><title>32x16 RLTools Generic bss: 201,124 bytes; ELF dec: 250,380; model state: 168,548</title></rect>
<rect class="baroutline" x="568.0" y="270.8" width="16" height="267.2"/>
<text class="tick" x="576.0" y="558" text-anchor="end" transform="rotate(-45 576.0 558)">RLTools</text>
<text class="label" x="668.0" y="610" text-anchor="middle">32x32</text>
<rect x="618.0" y="484.8" width="16" height="53.2" fill="#356bb0"><title>32x32 C M55 text: 49,868 bytes; ELF dec: 108,244; model state: 21,344</title></rect>
<rect x="618.0" y="484.7" width="16" height="0.5" fill="#e0a22e"><title>32x32 C M55 data: 92 bytes; ELF dec: 108,244; model state: 21,344</title></rect>
<rect x="618.0" y="422.5" width="16" height="62.2" fill="#4f9f68"><title>32x32 C M55 bss: 58,284 bytes; ELF dec: 108,244; model state: 21,344</title></rect>
<rect class="baroutline" x="618.0" y="422.5" width="16" height="115.5"/>
<text class="tick" x="626.0" y="558" text-anchor="end" transform="rotate(-45 626.0 558)">C</text>
<rect x="639.0" y="486.3" width="16" height="51.7" fill="#356bb0"><title>32x32 C++ direct C backend text: 48,436 bytes; ELF dec: 105,620; model state: 20,128</title></rect>
<rect x="639.0" y="486.2" width="16" height="0.5" fill="#e0a22e"><title>32x32 C++ direct C backend data: 92 bytes; ELF dec: 105,620; model state: 20,128</title></rect>
<rect x="639.0" y="425.3" width="16" height="60.9" fill="#4f9f68"><title>32x32 C++ direct C backend bss: 57,092 bytes; ELF dec: 105,620; model state: 20,128</title></rect>
<rect class="baroutline" x="639.0" y="425.3" width="16" height="112.7"/>
<text class="tick" x="647.0" y="558" text-anchor="end" transform="rotate(-45 647.0 558)">Direct</text>
<rect x="660.0" y="493.5" width="16" height="44.5" fill="#356bb0"><title>32x32 C++ M55 text: 41,752 bytes; ELF dec: 98,920; model state: 20,128</title></rect>
<rect x="660.0" y="493.3" width="16" height="0.5" fill="#e0a22e"><title>32x32 C++ M55 data: 112 bytes; ELF dec: 98,920; model state: 20,128</title></rect>
<rect x="660.0" y="432.5" width="16" height="60.9" fill="#4f9f68"><title>32x32 C++ M55 bss: 57,056 bytes; ELF dec: 98,920; model state: 20,128</title></rect>
<rect class="baroutline" x="660.0" y="432.5" width="16" height="105.5"/>
<text class="tick" x="668.0" y="558" text-anchor="end" transform="rotate(-45 668.0 558)">M55</text>
<rect x="681.0" y="489.0" width="16" height="49.0" fill="#356bb0"><title>32x32 C++ Generic text: 45,912 bytes; ELF dec: 102,976; model state: 20,024</title></rect>
<rect x="681.0" y="488.9" width="16" height="0.5" fill="#e0a22e"><title>32x32 C++ Generic data: 112 bytes; ELF dec: 102,976; model state: 20,024</title></rect>
<rect x="681.0" y="428.1" width="16" height="60.8" fill="#4f9f68"><title>32x32 C++ Generic bss: 56,952 bytes; ELF dec: 102,976; model state: 20,024</title></rect>
<rect class="baroutline" x="681.0" y="428.1" width="16" height="109.9"/>
<text class="tick" x="689.0" y="558" text-anchor="end" transform="rotate(-45 689.0 558)">Generic</text>
<rect x="702.0" y="487.5" width="16" height="50.5" fill="#356bb0"><title>32x32 RLTools Generic text: 47,340 bytes; ELF dec: 310,764; model state: 226,404</title></rect>
<rect x="702.0" y="487.4" width="16" height="0.5" fill="#e0a22e"><title>32x32 RLTools Generic data: 92 bytes; ELF dec: 310,764; model state: 226,404</title></rect>
<rect x="702.0" y="206.4" width="16" height="281.0" fill="#4f9f68"><title>32x32 RLTools Generic bss: 263,332 bytes; ELF dec: 310,764; model state: 226,404</title></rect>
<rect class="baroutline" x="702.0" y="206.4" width="16" height="331.6"/>
<text class="tick" x="710.0" y="558" text-anchor="end" transform="rotate(-45 710.0 558)">RLTools</text>
<text class="label" x="802.0" y="610" text-anchor="middle">64x32</text>
<rect x="752.0" y="484.8" width="16" height="53.2" fill="#356bb0"><title>64x32 C M55 text: 49,892 bytes; ELF dec: 136,300; model state: 40,160</title></rect>
<rect x="752.0" y="484.7" width="16" height="0.5" fill="#e0a22e"><title>64x32 C M55 data: 92 bytes; ELF dec: 136,300; model state: 40,160</title></rect>
<rect x="752.0" y="392.6" width="16" height="92.1" fill="#4f9f68"><title>64x32 C M55 bss: 86,316 bytes; ELF dec: 136,300; model state: 40,160</title></rect>
<rect class="baroutline" x="752.0" y="392.6" width="16" height="145.4"/>
<text class="tick" x="760.0" y="558" text-anchor="end" transform="rotate(-45 760.0 558)">C</text>
<rect x="773.0" y="486.3" width="16" height="51.7" fill="#356bb0"><title>64x32 C++ direct C backend text: 48,444 bytes; ELF dec: 133,532; model state: 38,816</title></rect>
<rect x="773.0" y="486.2" width="16" height="0.5" fill="#e0a22e"><title>64x32 C++ direct C backend data: 92 bytes; ELF dec: 133,532; model state: 38,816</title></rect>
<rect x="773.0" y="395.5" width="16" height="90.7" fill="#4f9f68"><title>64x32 C++ direct C backend bss: 84,996 bytes; ELF dec: 133,532; model state: 38,816</title></rect>
<rect class="baroutline" x="773.0" y="395.5" width="16" height="142.5"/>
<text class="tick" x="781.0" y="558" text-anchor="end" transform="rotate(-45 781.0 558)">Direct</text>
<rect x="794.0" y="492.3" width="16" height="45.7" fill="#356bb0"><title>64x32 C++ M55 text: 42,816 bytes; ELF dec: 127,888; model state: 38,816</title></rect>
<rect x="794.0" y="492.2" width="16" height="0.5" fill="#e0a22e"><title>64x32 C++ M55 data: 112 bytes; ELF dec: 127,888; model state: 38,816</title></rect>
<rect x="794.0" y="401.5" width="16" height="90.7" fill="#4f9f68"><title>64x32 C++ M55 bss: 84,960 bytes; ELF dec: 127,888; model state: 38,816</title></rect>
<rect class="baroutline" x="794.0" y="401.5" width="16" height="136.5"/>
<text class="tick" x="802.0" y="558" text-anchor="end" transform="rotate(-45 802.0 558)">M55</text>
<rect x="815.0" y="486.8" width="16" height="51.2" fill="#356bb0"><title>64x32 C++ Generic text: 47,960 bytes; ELF dec: 132,928; model state: 38,712</title></rect>
<rect x="815.0" y="486.7" width="16" height="0.5" fill="#e0a22e"><title>64x32 C++ Generic data: 112 bytes; ELF dec: 132,928; model state: 38,712</title></rect>
<rect x="815.0" y="396.2" width="16" height="90.5" fill="#4f9f68"><title>64x32 C++ Generic bss: 84,856 bytes; ELF dec: 132,928; model state: 38,712</title></rect>
<rect class="baroutline" x="815.0" y="396.2" width="16" height="141.8"/>
<text class="tick" x="823.0" y="558" text-anchor="end" transform="rotate(-45 823.0 558)">Generic</text>
<rect x="836.0" y="484.8" width="16" height="53.2" fill="#356bb0"><title>64x32 RLTools Generic text: 49,876 bytes; ELF dec: 439,252; model state: 343,140</title></rect>
<rect x="836.0" y="484.7" width="16" height="0.5" fill="#e0a22e"><title>64x32 RLTools Generic data: 92 bytes; ELF dec: 439,252; model state: 343,140</title></rect>
<rect x="836.0" y="69.3" width="16" height="415.4" fill="#4f9f68"><title>64x32 RLTools Generic bss: 389,284 bytes; ELF dec: 439,252; model state: 343,140</title></rect>
<rect class="baroutline" x="836.0" y="69.3" width="16" height="468.7"/>
<text class="tick" x="844.0" y="558" text-anchor="end" transform="rotate(-45 844.0 558)">RLTools</text>
<text class="label" transform="translate(24 302.0) rotate(-90)" text-anchor="middle">ELF size components</text>
<text class="legend" x="896" y="58">ELF components</text>
<rect x="896" y="62" width="16" height="16" fill="#356bb0"/>
<text class="legend" x="920" y="75">text</text>
<rect x="896" y="84" width="16" height="16" fill="#e0a22e"/>
<text class="legend" x="920" y="97">data</text>
<rect x="896" y="106" width="16" height="16" fill="#4f9f68"/>
<text class="legend" x="920" y="119">bss</text>
<text class="legend" x="896" y="150">Variant order</text>
<text class="legend" x="896" y="166">C: C M55</text>
<text class="legend" x="896" y="185">Direct: C++ direct C backend</text>
<text class="legend" x="896" y="204">M55: C++ M55</text>
<text class="legend" x="896" y="223">Generic: C++ Generic</text>
<text class="legend" x="896" y="242">RLTools: RLTools Generic</text>
</svg>
